<svg width="40" height="40" viewBox="0 0 40 40" fill="none" xmlns="http://www.w3.org/2000/svg">
<g id="Fether Icons /award" clip-path="url(#clip0_1_199)">
<path id="Vector (Stroke)" fill-rule="evenodd" clip-rule="evenodd" d="M20 3.33333C14.4771 3.33333 9.99999 7.81049 9.99999 13.3333C9.99999 18.8562 14.4771 23.3333 20 23.3333C25.5228 23.3333 30 18.8562 30 13.3333C30 7.81049 25.5228 3.33333 20 3.33333ZM6.66666 13.3333C6.66666 5.96954 12.6362 0 20 0C27.3638 0 33.3333 5.96954 33.3333 13.3333C33.3333 20.6971 27.3638 26.6667 20 26.6667C12.6362 26.6667 6.66666 20.6971 6.66666 13.3333Z" fill="#75634D"/>
<path id="Vector (Stroke)_2" fill-rule="evenodd" clip-rule="evenodd" d="M26.0975 21.4811C27.0099 21.36 27.8478 22.0016 27.9689 22.9141L29.9855 38.1141C30.0697 38.7485 29.7832 39.375 29.2483 39.7263C28.7134 40.0777 28.0246 40.0917 27.4758 39.7624L20 35.2769L12.5242 39.7624C11.9754 40.0917 11.2865 40.0777 10.7516 39.7263C10.2167 39.3749 9.93025 38.7483 10.0145 38.1138L12.0312 22.9305C12.1524 22.0181 12.9903 21.3766 13.9028 21.4978C14.8152 21.619 15.4567 22.4569 15.3355 23.3694L13.7741 35.1252L19.1425 31.9041C19.6703 31.5875 20.3297 31.5875 20.8575 31.9041L26.2265 35.1255L24.6645 23.3525C24.5434 22.44 25.185 21.6022 26.0975 21.4811Z" fill="#75634D"/>
</g>
<defs>
<clipPath id="clip0_1_199">
<rect width="40" height="40" fill="white"/>
</clipPath>
</defs>
</svg>
