<svg width="51" height="50" viewBox="0 0 51 50" fill="none" xmlns="http://www.w3.org/2000/svg">
<g id="bed (1) 1" clip-path="url(#clip0_1_155)">
<g id="Group 9027">
<g id="Group">
<path id="Vector" d="M4.64933 27.9738H46.3505C48.0693 27.9738 49.4625 26.5806 49.4625 24.8618C49.4625 23.1431 48.0693 21.7498 46.3505 21.7498H4.64933C2.93058 21.7498 1.53732 23.1431 1.53732 24.8618C1.53723 26.5806 2.93058 27.9738 4.64933 27.9738Z" fill="#75634D"/>
<path id="Vector_2" d="M28.612 15.0374C27.7037 15.0374 26.9648 15.7762 26.9648 16.6845V18.82H39.7128V16.6845C39.7128 15.7762 38.9739 15.0374 38.0656 15.0374H28.612Z" fill="#75634D"/>
<path id="Vector_3" d="M8.35649 16.6847C8.35649 14.161 10.4096 12.1078 12.9334 12.1078H22.387C23.5879 12.1078 24.6817 12.5735 25.499 13.3328C26.3163 12.5735 27.41 12.1078 28.611 12.1078H38.0646C40.5883 12.1078 42.6415 14.161 42.6415 16.6847V18.8201H47.3962V8.7303C47.3962 7.01155 46.0029 5.61829 44.2842 5.61829H6.71382C4.99507 5.61829 3.60181 7.01155 3.60181 8.7303V18.8201H8.35649V16.6847Z" fill="#75634D"/>
<path id="Vector_4" d="M12.9345 15.0374C12.0262 15.0374 11.2873 15.7762 11.2873 16.6845V18.82H24.0353V16.6845C24.0353 15.7762 23.2964 15.0374 22.3881 15.0374H12.9345Z" fill="#75634D"/>
<path id="Vector_5" d="M0.5 30.9035V44.3817H3.42969V39.0402H47.5703V44.3817H50.5V30.9035H0.5Z" fill="#75634D"/>
</g>
</g>
</g>
<defs>
<clipPath id="clip0_1_155">
<rect width="50" height="50" fill="white" transform="translate(0.5)"/>
</clipPath>
</defs>
</svg>
