<svg width="47" height="31" viewBox="0 0 47 31" fill="none" xmlns="http://www.w3.org/2000/svg">
<g id="choose">
<path id="Vector" d="M21.8732 30.2782C20.4138 30.0313 18.121 29.1465 17.1018 28.7554C15.2945 28.0762 13.5457 27.2505 11.8727 26.2867C8.58258 24.3598 5.12967 20.7234 6.39898 16.6184C7.27832 13.7783 8.31933 10.8114 10.2397 8.6202L9.96222 10.3396C11.4377 8.38373 13.0929 6.57018 14.9062 4.9226L14.5785 6.14166C16.3437 4.58543 18.1086 3.02919 19.8731 1.47296C20.1623 1.64545 20.3974 1.89547 20.5519 2.19471C20.7063 2.49394 20.7739 2.83044 20.747 3.1661C21.9065 1.98559 23.3289 1.09621 24.8979 0.570684L24.6794 2.03115C26.5466 1.50901 28.4127 0.987234 30.2777 0.46582C30.009 1.39432 31.4793 1.81705 32.375 1.46313C33.2707 1.10921 34.3238 0.488758 35.1059 1.05678L34.6089 2.27584C38.8822 2.92299 42.9556 4.52145 46.5286 6.95327L43.3662 9.69725C44.1309 9.45257 44.1036 10.8311 43.6196 11.4712L41.1706 14.71C41.7997 14.6008 42.4044 14.3808 42.9566 14.0601C41.5529 16.6708 40.5119 18.1957 38.0661 19.4049C38.632 19.3613 39.0493 19.8233 39.4971 20.1696C37.9817 20.924 36.4666 21.6781 34.9519 22.4318L36.2747 23.8967C35.4523 24.7609 34.4557 25.4406 33.3508 25.8907C32.246 26.3408 31.0581 26.551 29.8659 26.5074L31.7283 27.2207C30.8973 27.761 29.9562 28.1092 28.9737 28.2402C27.9911 28.3711 26.9917 28.2815 26.0481 27.9777C26.4721 28.5391 26.6736 29.2375 26.614 29.9385C24.5761 29.8469 22.5592 29.4881 20.6148 28.8712L21.8732 30.2782Z" stroke="#725E3A" stroke-width="0.327704" stroke-miterlimit="10"/>
<path id="Vector_2" d="M46.1943 7.03296C42.3164 7.64686 38.893 9.80971 35.4456 11.6864C24.5267 17.6145 12.4102 21.0005 -2.56525e-05 21.5918" stroke="#725E3A" stroke-width="0.327704" stroke-miterlimit="10"/>
<path id="Vector_3" d="M20.7448 3.16602C18.3274 5.7374 16.3077 8.64633 14.2999 11.541L10.8142 16.5658C9.9076 17.8767 8.95725 19.3382 8.30185 20.779" stroke="#725E3A" stroke-width="0.327704" stroke-miterlimit="10"/>
<path id="Vector_4" d="M30.3924 0.401367C23.3173 5.08535 20.5864 14.8793 13.6861 19.8321" stroke="#725E3A" stroke-width="0.327704" stroke-miterlimit="10"/>
<path id="Vector_5" d="M40.5983 3.81616C38.9805 3.9254 37.5036 5.03304 36.3326 6.21933C34.0605 8.51326 32.2811 11.2856 29.8583 13.4234C28.4581 14.6566 26.8689 15.6568 25.1514 16.3858" stroke="#725E3A" stroke-width="0.327704" stroke-miterlimit="10"/>
<path id="Vector_6" d="M34.7367 2.24525C34.2692 2.22668 33.8475 2.51069 33.4772 2.79142C28.0712 6.94234 25.1972 13.6832 20.0414 18.1247" stroke="#725E3A" stroke-width="0.327704" stroke-miterlimit="10"/>
<path id="Vector_7" d="M25.1513 16.3834C29.8921 14.2599 36.3795 16.414 41.2645 14.6575" stroke="#725E3A" stroke-width="0.327704" stroke-miterlimit="10"/>
<path id="Vector_8" d="M38.325 19.3645C32.1117 20.34 25.5849 19.8965 19.5049 18.2886" stroke="#725E3A" stroke-width="0.327704" stroke-miterlimit="10"/>
<path id="Vector_9" d="M36.2747 23.8912C28.7517 24.5969 20.6978 22.9016 13.8291 19.7534" stroke="#725E3A" stroke-width="0.327704" stroke-miterlimit="10"/>
<path id="Vector_10" d="M8.54542 20.7322C13.5702 23.0341 18.6617 25.1886 23.8197 27.1956C25.2201 27.7418 26.6664 28.288 28.1694 28.265" stroke="#725E3A" stroke-width="0.327704" stroke-miterlimit="10"/>
</g>
</svg>
