<svg width="27" height="27" viewBox="0 0 27 27" fill="none" xmlns="http://www.w3.org/2000/svg">
<g id="email 1" clip-path="url(#clip0_1_126)">
<g id="Group">
<g id="Group_2">
<path id="Vector" d="M17.8373 13.6378L26.909 19.3728V7.66064L17.8373 13.6378Z" fill="#E8DED1"/>
</g>
</g>
<g id="Group_3">
<g id="Group_4">
<path id="Vector_2" d="M0 7.66064V19.3728L9.07173 13.6378L0 7.66064Z" fill="#E8DED1"/>
</g>
</g>
<g id="Group_5">
<g id="Group_6">
<path id="Vector_3" d="M25.2273 4.25H1.68187C0.842643 4.25 0.176643 4.87564 0.0505066 5.68123L13.4546 14.5125L26.8587 5.68123C26.7326 4.87564 26.0666 4.25 25.2273 4.25Z" fill="#E8DED1"/>
</g>
</g>
<g id="Group_7">
<g id="Group_8">
<path id="Vector_4" d="M16.2968 14.6538L13.917 16.2212C13.7758 16.3137 13.616 16.3591 13.4545 16.3591C13.2931 16.3591 13.1333 16.3137 12.992 16.2212L10.6123 14.6521L0.0538025 21.3306C0.183302 22.1295 0.845939 22.7501 1.6818 22.7501H25.2273C26.0631 22.7501 26.7258 22.1295 26.8553 21.3306L16.2968 14.6538Z" fill="#E8DED1"/>
</g>
</g>
</g>
<defs>
<clipPath id="clip0_1_126">
<rect width="26.9091" height="26.9091" fill="white" transform="translate(0 0.0454102)"/>
</clipPath>
</defs>
</svg>
