<svg width="20" height="20" viewBox="0 0 20 20" fill="none" xmlns="http://www.w3.org/2000/svg">
<g id="facebook 2" clip-path="url(#clip0_1_301)">
<g id="Group">
<path id="Vector" d="M10 20C15.5228 20 20 15.5228 20 10C20 4.47715 15.5228 0 10 0C4.47715 0 0 4.47715 0 10C0 15.5228 4.47715 20 10 20Z" fill="white"/>
<path id="Vector_2" d="M12.514 10.3915H10.7296V16.9286H8.02614V10.3915H6.74036V8.0941H8.02614V6.60742C8.02614 5.54428 8.53115 3.87952 10.7537 3.87952L12.7563 3.88789V6.11792H11.3033C11.0649 6.11792 10.7298 6.237 10.7298 6.74415V8.09624H12.7502L12.514 10.3915Z" fill="#75634D"/>
</g>
</g>
<defs>
<clipPath id="clip0_1_301">
<rect width="20" height="20" fill="white"/>
</clipPath>
</defs>
</svg>
