<svg width="169" height="84" viewBox="0 0 169 84" fill="none" xmlns="http://www.w3.org/2000/svg">
<g id="Group 7">
<path id="Vector" d="M119.235 0C108.151 0.00178256 97.3855 3.1093 88.6483 8.82894C79.9112 14.5486 73.7036 22.5524 71.0116 31.569C72.6197 31.5271 74.2278 31.4852 75.826 31.4601C79.3219 31.3847 82.8178 31.3679 86.3038 31.3512C89.7897 31.3344 93.2956 31.3512 96.7915 31.3512C100.287 31.3512 103.783 31.4098 107.279 31.5019C110.775 31.5941 114.271 31.7281 117.777 31.9459C119.545 32.0631 121.273 32.172 123.111 32.4149C123.357 32.4401 123.6 32.4793 123.84 32.5322L124.04 32.5741L124.259 32.6327C124.359 32.6555 124.456 32.6863 124.549 32.7248C124.758 32.792 124.946 32.8979 125.098 33.0348C125.208 33.131 125.299 33.2413 125.368 33.3614C125.402 33.4196 125.426 33.4817 125.438 33.5457C125.46 33.6118 125.476 33.6789 125.488 33.7467C125.497 33.8443 125.497 33.9423 125.488 34.0399C125.488 34.1152 125.488 34.1906 125.488 34.266V34.4587C125.444 34.6793 125.384 34.8975 125.308 35.112C125.031 35.8522 124.697 36.5767 124.309 37.2813C123.59 38.655 122.791 39.97 121.982 41.2767C121.173 42.5833 120.324 43.8732 119.455 45.1547C117.727 47.7094 115.939 50.2306 114.051 52.6931L113.792 52.5758L118.117 44.5768C119.525 41.9049 120.963 39.233 122.162 36.5443C122.449 35.9088 122.692 35.2599 122.891 34.601H122.751C121.123 34.4503 119.365 34.4 117.647 34.3498C114.181 34.2576 110.655 34.199 107.219 34.1488C100.228 34.0315 93.2357 33.8556 86.3038 33.7048C82.8078 33.6211 79.3119 33.5541 75.836 33.4535C74.078 33.4117 72.3201 33.3447 70.5721 33.286C68.8882 40.1648 69.297 47.2883 71.7607 53.9997C75.4564 53.9244 79.1621 53.8406 82.8578 53.7485C88.3314 53.6312 93.8083 53.6312 99.2886 53.7485C104.762 53.8657 110.276 54.0333 115.719 54.3013C121.163 54.5693 126.707 54.8876 132.14 55.4153V55.7922C126.667 56.3199 121.153 56.6298 115.719 56.9062H115.41L120.544 66.2454L112.923 57.0319C108.381 57.2273 103.837 57.3725 99.2886 57.4674C93.8017 57.5679 88.3247 57.5679 82.8578 57.4674L73.1191 57.2496C76.4762 64.2745 82.0509 70.4002 89.2449 74.9697C96.439 79.5391 104.981 82.3797 113.954 83.1868C122.928 83.9938 131.994 82.7368 140.18 79.5507C148.366 76.3645 155.363 71.3694 160.42 65.1013C165.477 58.8332 168.404 51.5287 168.886 43.9716C169.368 36.4144 167.387 28.8899 163.155 22.2052C158.924 15.5206 152.603 9.92816 144.869 6.028C137.135 2.12784 128.28 0.0671385 119.255 0.0670091L119.235 0ZM87.6921 39.0319C87.5822 40.5647 87.4125 42.0808 87.2027 43.6052C86.9929 45.1296 86.7232 46.6289 86.4036 48.1366C86.0912 49.6527 85.6844 51.154 85.185 52.6345C85.1132 51.0989 85.1366 49.5612 85.255 48.0277C85.3648 46.4949 85.5247 44.9705 85.7444 43.4544C85.9642 41.9384 86.2238 40.4223 86.5435 38.9147C86.857 37.4015 87.2637 35.903 87.762 34.4252C87.8519 35.9663 87.782 37.4991 87.6921 39.0319Z" fill="#685945"/>
<path id="Vector_2" d="M66.4068 54.0919L49.976 54.3348L33.5452 54.6447L20.4904 54.9295L22.6079 55.9598L22.3582 56.2529L33.5452 56.4958L49.976 56.7974L66.4068 57.0486C68.6342 57.0486 70.8716 57.1324 73.099 57.1827C72.5996 56.1357 72.1002 55.0719 71.7406 53.983L66.4068 54.0919Z" fill="#C2BEBA"/>
<path id="Vector_3" d="M17.1241 55.0049L8.90366 55.1808L0.693237 55.3902V55.7588L8.90366 55.9682L17.1241 56.1441L19.6311 56.1943L20.3503 54.9296L17.1241 55.0049Z" fill="#C2BEBA"/>
<path id="Vector_4" d="M99.2679 57.4254C103.809 57.3305 108.354 57.1853 112.902 56.9899L112.043 55.9513L114.28 54.8792L115.389 56.881H115.699C121.172 56.6213 126.686 56.2947 132.12 55.767V55.3901C126.646 54.8624 121.132 54.5525 115.699 54.2761C110.265 53.9997 104.712 53.8405 99.2679 53.7233C93.8243 53.606 88.2808 53.6228 82.8371 53.7233C79.1414 53.8154 75.4357 53.8992 71.7401 53.9745C72.1396 55.0634 72.5991 56.1272 73.0985 57.1742L82.8371 57.3919C88.3107 57.5148 93.7877 57.526 99.2679 57.4254Z" fill="white"/>
<path id="Vector_5" d="M20.3799 54.871L20.35 54.9296H20.4896L20.3799 54.871Z" fill="#C2BEBA"/>
<path id="Vector_6" d="M13.7681 66.5304L22.358 56.2531L19.6312 56.1945L13.7681 66.5304Z" fill="#C2BEBA"/>
<path id="Vector_7" d="M20.4898 54.9296H20.35L19.6308 56.1943L22.3576 56.253L22.6073 55.9598L20.4898 54.9296Z" fill="#C2BEBA"/>
<path id="Vector_8" d="M120.523 66.2203L115.389 56.8811L112.902 56.99L120.523 66.2203Z" fill="white"/>
<path id="Vector_9" d="M112.073 55.9513L112.932 56.9899L115.419 56.881L114.311 54.8792L112.073 55.9513Z" fill="white"/>
<path id="Vector_10" d="M65.348 31.7364C58.3562 31.9542 51.3643 32.0798 44.3725 32.0212C37.3806 31.9626 30.3888 31.6024 23.397 31.5103C19.901 31.5103 16.4051 31.5103 12.8992 31.5856L10.2723 31.6694C9.38331 31.7113 8.5343 31.7364 7.58541 31.8118H7.38564H7.27577H7.12593C7.01699 31.8291 6.91006 31.8543 6.80632 31.8872L6.48668 32.0044C6.08316 32.2011 5.75686 32.4922 5.54779 32.842C5.26594 33.3262 5.13208 33.8616 5.15824 34.4C5.20637 35.2141 5.36726 36.0209 5.63768 36.8039C6.13175 38.2519 6.74928 39.6683 7.48552 41.0421C8.19469 42.399 8.9638 43.7308 9.77286 45.0374C11.3798 47.6539 13.1433 50.2006 15.0567 52.6679L15.3064 52.5506C13.908 49.862 12.5097 47.1817 11.2012 44.4846C10.5353 43.1333 9.91269 41.7792 9.33337 40.4223C8.74639 39.0878 8.2528 37.7258 7.8551 36.3432C7.66421 35.7105 7.56362 35.061 7.55544 34.4083C7.55042 34.2308 7.58777 34.0543 7.66531 33.889H7.82513C8.61421 33.8388 9.50317 33.822 10.3622 33.8053H12.9691C16.4451 33.8053 19.9277 33.7355 23.4169 33.5959C30.4088 33.3781 37.4006 32.9425 44.3925 32.8504C51.3843 32.7583 58.3761 32.8504 65.368 33.1184L70.5719 33.3027C70.7118 32.7331 70.8716 32.1636 71.0314 31.6275L65.348 31.7364Z" fill="#C2BEBA"/>
<path id="Vector_11" d="M86.2832 33.688C93.2751 33.8387 100.267 34.0146 107.199 34.1319C110.675 34.1822 114.191 34.2408 117.627 34.3329C119.345 34.3832 121.103 34.4334 122.731 34.5842H122.871C122.911 34.4463 122.941 34.3064 122.96 34.1654V34.0816C122.956 34.101 122.956 34.1209 122.96 34.1403L123.01 34.2492C123.112 34.4374 123.279 34.5951 123.49 34.7015H123.4H123.29L122.861 34.6512C122.662 35.3101 122.419 35.9589 122.131 36.5944C120.933 39.2831 119.494 41.955 118.086 44.627L113.761 52.626L114.021 52.7432C115.909 50.2723 117.697 47.7177 119.425 45.2049C120.297 43.9206 121.139 42.6279 121.952 41.3268C122.761 40.0202 123.56 38.7052 124.279 37.3315C124.666 36.6269 125 35.9023 125.278 35.1621C125.354 34.9477 125.414 34.7295 125.458 34.5088V34.3162C125.458 34.2408 125.458 34.1654 125.458 34.09C125.467 33.9925 125.467 33.8944 125.458 33.7969C125.446 33.7291 125.429 33.6619 125.408 33.5958C125.395 33.5319 125.372 33.4698 125.338 33.4116C125.277 33.2583 125.182 33.1161 125.058 32.9928C124.905 32.856 124.717 32.75 124.509 32.6829C124.416 32.6444 124.319 32.6135 124.219 32.5907L123.999 32.5321L123.799 32.4902C123.56 32.4373 123.316 32.3981 123.07 32.3729C121.232 32.13 119.504 32.0212 117.737 31.9039C114.231 31.6861 110.745 31.5605 107.239 31.46C103.733 31.3595 100.247 31.3092 96.751 31.3092C93.2551 31.3092 89.7592 31.3092 86.2633 31.3092C82.7673 31.3092 79.2714 31.3092 75.7855 31.4181C74.1874 31.4181 72.5792 31.4851 70.9711 31.527C70.8113 32.0882 70.6515 32.6577 70.5117 33.2022C72.2596 33.2608 74.0176 33.3278 75.7755 33.3697C79.3014 33.5372 82.7873 33.6042 86.2832 33.688Z" fill="white"/>
<path id="Vector_12" d="M123.41 34.6679H123.5C123.289 34.5616 123.122 34.4038 123.02 34.2156L122.971 34.1067C122.966 34.0874 122.966 34.0674 122.971 34.0481V34.1319C122.951 34.2729 122.921 34.4127 122.881 34.5507L123.31 34.6009L123.41 34.6679Z" fill="white"/>
<path id="Vector_13" d="M44.2023 48.1367C44.5148 49.6528 44.9215 51.1542 45.4209 52.6346C45.4927 51.099 45.4694 49.5614 45.351 48.0278C45.2411 46.495 45.0813 44.9706 44.8616 43.4546C44.6418 41.9385 44.3821 40.4225 44.0625 38.9148C43.749 37.4017 43.3422 35.9032 42.8439 34.4253C42.7723 35.9609 42.7956 37.4985 42.9138 39.0321C43.0237 40.5649 43.1835 42.0809 43.4033 43.6053C43.623 45.1297 43.8827 46.629 44.2023 48.1367Z" fill="#C2BEBA"/>
<path id="Vector_14" d="M86.5431 38.9148C86.2235 40.4225 85.9571 41.9357 85.7441 43.4546C85.5243 44.9706 85.3645 46.495 85.2546 48.0278C85.1362 49.5614 85.1129 51.099 85.1847 52.6346C85.6841 51.1542 86.0908 49.6528 86.4033 48.1367C86.7229 46.629 86.9893 45.1186 87.2023 43.6053C87.4121 42.0809 87.5819 40.5649 87.6918 39.0321C87.8016 37.4993 87.8516 35.9665 87.7617 34.4253C87.2634 35.9032 86.8567 37.4017 86.5431 38.9148Z" fill="white"/>
</g>
</svg>
