<svg width="30" height="30" viewBox="0 0 30 30" fill="none" xmlns="http://www.w3.org/2000/svg">
<g id="Phosphor Icons Fill / HeartStraight">
<path id="Vector" d="M26.3204 6.08203C25.6849 5.36891 24.9098 4.79394 24.043 4.39278C23.1761 3.99163 22.2362 3.77284 21.2813 3.74999C20.3273 3.72908 19.3788 3.90098 18.4928 4.25538C17.6068 4.60978 16.8015 5.1394 16.125 5.81249L15 6.92577L14.1211 6.05859C11.3907 3.3164 6.93754 3.08203 4.20707 5.55468C3.49647 6.19215 2.92337 6.96786 2.5228 7.83438C2.12223 8.7009 1.90262 9.64002 1.87739 10.5943C1.85216 11.5486 2.02185 12.498 2.37607 13.3845C2.7303 14.271 3.26161 15.0759 3.93754 15.75L13.6758 25.4883C13.8491 25.6633 14.0553 25.8023 14.2826 25.8971C14.5099 25.9919 14.7538 26.0407 15 26.0407C15.2463 26.0407 15.4902 25.9919 15.7175 25.8971C15.9448 25.8023 16.151 25.6633 16.3243 25.4883L25.8164 15.9961C28.5586 13.2656 28.7813 8.81249 26.3204 6.08203Z" fill="#F1EDE8"/>
</g>
</svg>
