<svg width="24" height="24" viewBox="0 0 24 24" fill="none" xmlns="http://www.w3.org/2000/svg">
<g id="Phosphor Icons Regular / Heart">
<path id="Vector (Stroke)" fill-rule="evenodd" clip-rule="evenodd" d="M9.4388 4.98404C8.5971 4.53583 7.6261 4.3931 6.69102 4.58011C5.75594 4.76713 4.91454 5.27235 4.30996 6.0098C3.70539 6.74726 3.375 7.67141 3.375 8.62501C3.375 11.4673 5.49147 14.1802 7.81422 16.2707C8.95292 17.2955 10.095 18.1296 10.954 18.708C11.3828 18.9967 11.7393 19.2205 11.9871 19.3713C11.9914 19.3739 11.9957 19.3766 12 19.3792C12.0043 19.3766 12.0086 19.3739 12.0129 19.3713C12.2607 19.2205 12.6172 18.9967 13.046 18.708C13.905 18.1296 15.0471 17.2955 16.1858 16.2707C18.5085 14.1802 20.625 11.4673 20.625 8.62501C20.625 7.67141 20.2946 6.74726 19.69 6.0098C19.0855 5.27235 18.2441 4.76713 17.309 4.58011C16.3739 4.3931 15.4029 4.53583 14.5612 4.98404C13.7195 5.43224 13.0591 6.15822 12.6923 7.03847L12 6.75001L11.3077 7.03847C10.9409 6.15822 10.2805 5.43224 9.4388 4.98404ZM12 5.25C11.5086 4.59484 10.8766 4.05025 10.1438 3.66005C8.99604 3.04886 7.67196 2.85422 6.39685 3.10924C5.12174 3.36426 3.97437 4.0532 3.14995 5.05882C2.32553 6.06445 1.875 7.32465 1.875 8.62501C1.875 12.1577 4.44603 15.2573 6.81078 17.3856C8.01583 18.4702 9.21747 19.347 10.1163 19.9522C10.5664 20.2553 10.9424 20.4915 11.2073 20.6527C11.3398 20.7333 11.4446 20.7952 11.5171 20.8375C11.5534 20.8587 11.5816 20.8749 11.6012 20.8861L11.6241 20.8991L11.6305 20.9027L11.6325 20.9038L11.6331 20.9041C11.6333 20.9043 11.6335 20.9044 12 20.25L11.6335 20.9044C11.8612 21.0319 12.1388 21.0319 12.3665 20.9044L12 20.25C12.3665 20.9044 12.3667 20.9043 12.3669 20.9041L12.3675 20.9038L12.3695 20.9027L12.3759 20.8991L12.3988 20.8861C12.4184 20.8749 12.4466 20.8587 12.4829 20.8375C12.5554 20.7952 12.6602 20.7333 12.7927 20.6527C13.0576 20.4915 13.4336 20.2553 13.8837 19.9522C14.7825 19.347 15.9842 18.4702 17.1892 17.3856C19.554 15.2573 22.125 12.1577 22.125 8.62501C22.125 7.32465 21.6745 6.06445 20.85 5.05882C20.0256 4.0532 18.8783 3.36426 17.6032 3.10924C16.328 2.85422 15.004 3.04886 13.8562 3.66005C13.1234 4.05025 12.4914 4.59484 12 5.25Z" fill="#725E3A"/>
</g>
</svg>
