<svg width="30" height="30" viewBox="0 0 30 30" fill="none" xmlns="http://www.w3.org/2000/svg">
<g id="Phosphor Icons Fill / HeartStraight">
<path id="Vector" d="M26.3203 6.08203C25.6849 5.36891 24.9097 4.79394 24.0429 4.39278C23.1761 3.99163 22.2361 3.77284 21.2812 3.74999C20.3272 3.72908 19.3788 3.90098 18.4928 4.25538C17.6067 4.60978 16.8014 5.1394 16.125 5.81249L15 6.92577L14.1211 6.05859C11.3906 3.3164 6.93748 3.08203 4.20701 5.55468C3.49641 6.19215 2.92331 6.96786 2.52274 7.83438C2.12217 8.7009 1.90256 9.64002 1.87733 10.5943C1.8521 11.5486 2.02179 12.498 2.37601 13.3845C2.73024 14.271 3.26155 15.0759 3.93748 15.75L13.6758 25.4883C13.849 25.6633 14.0553 25.8023 14.2826 25.8971C14.5099 25.9919 14.7537 26.0407 15 26.0407C15.2463 26.0407 15.4901 25.9919 15.7174 25.8971C15.9447 25.8023 16.1509 25.6633 16.3242 25.4883L25.8164 15.9961C28.5586 13.2656 28.7812 8.81249 26.3203 6.08203Z" fill="#725E3A"/>
</g>
</svg>
