<svg width="51" height="50" viewBox="0 0 51 50" fill="none" xmlns="http://www.w3.org/2000/svg">
<g id="kitchen (1) 1" clip-path="url(#clip0_1_183)">
<g id="Group">
<g id="Group_2">
<g id="Group_3">
<path id="Vector" d="M0.511475 50H21.1073V38.1891H0.511475V50ZM5.01597 41.2476H16.7003V44.176H5.01597V41.2476Z" fill="#75634D"/>
<path id="Vector_2" d="M0.511475 35.2608H21.1073V23.6452H0.511475V35.2608ZM5.01597 26.761H16.7003V29.6893H5.01597V26.761Z" fill="#75634D"/>
<path id="Vector_3" d="M24.0362 50H50.4886V23.6452H24.0362V50ZM41.6061 26.761H44.5344V29.7616H41.6061V26.761ZM35.7495 26.761H38.6778V29.7616H35.7495V26.761ZM29.8928 26.761H32.8211V29.7616H29.8928V26.761ZM29.8928 32.3813H44.5344V44.1434H29.8928V32.3813Z" fill="#75634D"/>
<path id="Vector_4" d="M41.6061 6.75107V0H32.8211V6.75596L24.0362 12.6125V17.7886H50.4886V12.6076L41.6061 6.75107Z" fill="#75634D"/>
</g>
</g>
</g>
</g>
<defs>
<clipPath id="clip0_1_183">
<rect width="50" height="50" fill="white" transform="translate(0.499985)"/>
</clipPath>
</defs>
</svg>
