<svg width="123" height="70" viewBox="0 0 123 70" fill="none" xmlns="http://www.w3.org/2000/svg">
<g filter="url(#filter0_d_1_240)">
<path d="M64.8282 0C59.1405 0.00109078 53.6162 1.90263 49.1329 5.40257C44.6495 8.90251 41.4642 13.8001 40.0828 19.3176C40.908 19.2919 41.7332 19.2663 42.5533 19.2509C44.3471 19.2048 46.141 19.1945 47.9298 19.1843C49.7185 19.174 51.5175 19.1843 53.3114 19.1843C55.1053 19.1843 56.8992 19.2202 58.6931 19.2765C60.487 19.3329 62.2808 19.4149 64.0798 19.5482C64.987 19.6199 65.8737 19.6866 66.8168 19.8352C66.943 19.8506 67.068 19.8746 67.1909 19.907L67.2935 19.9326L67.4062 19.9685C67.4575 19.9824 67.5072 20.0013 67.5548 20.0248C67.6619 20.0659 67.7583 20.1308 67.8368 20.2145C67.8931 20.2734 67.9398 20.3409 67.9751 20.4144C67.9925 20.45 68.0046 20.488 68.011 20.5271C68.0221 20.5676 68.0306 20.6087 68.0366 20.6501C68.0414 20.7098 68.0414 20.7698 68.0366 20.8295C68.0366 20.8757 68.0366 20.9218 68.0366 20.9679V21.0858C68.0142 21.2208 67.9834 21.3544 67.9444 21.4856C67.8019 21.9385 67.6307 22.3819 67.4318 22.8131C67.0628 23.6536 66.6528 24.4583 66.2376 25.2579C65.8225 26.0574 65.3868 26.8467 64.9409 27.6309C64.0542 29.1941 63.1368 30.7369 62.1681 32.2437L62.0348 32.172L64.2541 27.2773C64.9768 25.6423 65.7148 24.0073 66.3299 22.362C66.4772 21.9731 66.6021 21.5761 66.704 21.1729H66.6323C65.7968 21.0807 64.8948 21.0499 64.0132 21.0192C62.2347 20.9628 60.4255 20.9269 58.6623 20.8962C55.0746 20.8244 51.4868 20.7168 47.9298 20.6245C46.1359 20.5733 44.342 20.5323 42.5584 20.4708C41.6563 20.4451 40.7543 20.4041 39.8573 20.3683C38.9933 24.5775 39.203 28.9365 40.4672 33.0433C42.3636 32.9972 44.2651 32.9459 46.1615 32.8895C48.9702 32.8178 51.7807 32.8178 54.5928 32.8895C57.4015 32.9613 60.2307 33.0638 63.024 33.2278C65.8173 33.3918 68.6619 33.5866 71.4501 33.9095V34.1401C68.6414 34.463 65.8122 34.6527 63.024 34.8218H62.8651L65.4996 40.5366L61.5889 34.8987C59.2586 35.0183 56.9265 35.1071 54.5928 35.1652C51.7772 35.2267 48.9668 35.2267 46.1615 35.1652L41.1643 35.032C42.8869 39.3306 45.7475 43.079 49.439 45.8751C53.1305 48.6713 57.5137 50.4095 62.1182 50.9033C66.7228 51.3972 71.3749 50.628 75.5754 48.6783C79.7759 46.7286 83.3663 43.672 85.9613 39.8365C88.5564 36.001 90.0581 31.5312 90.3055 26.9069C90.5528 22.2826 89.5363 17.6782 87.3652 13.5877C85.194 9.49729 81.9501 6.0752 77.9815 3.68863C74.0129 1.30206 69.4693 0.0410831 64.8384 0.041004L64.8282 0ZM48.6422 23.8843C48.5858 24.8222 48.4987 25.7499 48.3911 26.6827C48.2834 27.6155 48.145 28.533 47.981 29.4555C47.8207 30.3833 47.612 31.302 47.3557 32.2079C47.3189 31.2682 47.3309 30.3273 47.3916 29.3889C47.448 28.451 47.53 27.5182 47.6428 26.5905C47.7555 25.6628 47.8888 24.7351 48.0528 23.8125C48.2137 22.8866 48.4224 21.9696 48.6781 21.0653C48.7242 22.0084 48.6883 22.9463 48.6422 23.8843Z" fill="#685945"/>
<path d="M37.72 33.0998L29.2887 33.2485L20.8575 33.4381L14.1586 33.6124L15.2452 34.2428L15.1171 34.4222L20.8575 34.5708L29.2887 34.7553L37.72 34.9091C38.8629 34.9091 40.011 34.9603 41.154 34.9911C40.8977 34.3504 40.6415 33.6995 40.4569 33.0332L37.72 33.0998Z" fill="#685945"/>
<path d="M12.4312 33.6587L8.21306 33.7663L4 33.8944V34.12L8.21306 34.2481L12.4312 34.3557L13.7177 34.3865L14.0867 33.6125L12.4312 33.6587Z" fill="#685945"/>
<path d="M54.5822 35.1397C56.9125 35.0816 59.2446 34.9928 61.5783 34.8732L61.1376 34.2376L62.2856 33.5816L62.8546 34.8065H63.0135C65.8222 34.6476 68.6514 34.4478 71.4396 34.1249V33.8942C68.6309 33.5713 65.8017 33.3817 63.0135 33.2125C60.2253 33.0434 57.3755 32.946 54.5822 32.8743C51.7889 32.8025 48.9443 32.8128 46.151 32.8743C44.2546 32.9306 42.3531 32.9819 40.4567 33.028C40.6617 33.6943 40.8975 34.3452 41.1537 34.9859L46.151 35.1192C48.9597 35.1944 51.7701 35.2012 54.5822 35.1397Z" fill="white"/>
<path d="M14.1019 33.5764L14.0865 33.6123H14.1583L14.1019 33.5764Z" fill="#685945"/>
<path d="M10.7092 40.7109L15.117 34.4221L13.7178 34.3862L10.7092 40.7109Z" fill="#685945"/>
<path d="M14.1583 33.6125H14.0866L13.7175 34.3865L15.1168 34.4224L15.2449 34.243L14.1583 33.6125Z" fill="#685945"/>
<path d="M65.4892 40.5212L62.8547 34.8064L61.5785 34.873L65.4892 40.5212Z" fill="white"/>
<path d="M61.1531 34.2376L61.5939 34.8731L62.8701 34.8065L62.3012 33.5815L61.1531 34.2376Z" fill="white"/>
<path d="M37.1766 19.4201C33.5888 19.5534 30.0011 19.6303 26.4133 19.5944C22.8255 19.5585 19.2378 19.3381 15.65 19.2817C13.8561 19.2817 12.0623 19.2817 10.2632 19.3279L8.91527 19.3791C8.45911 19.4047 8.02345 19.4201 7.53654 19.4663H7.43404H7.37766H7.30077C7.24487 19.4769 7.19 19.4923 7.13676 19.5124L6.97275 19.5841C6.76568 19.7044 6.59825 19.8826 6.49097 20.0967C6.34634 20.393 6.27765 20.7206 6.29108 21.05C6.31577 21.5482 6.39833 22.0419 6.53709 22.521C6.79062 23.4071 7.1075 24.2738 7.48528 25.1144C7.84919 25.9447 8.24384 26.7597 8.659 27.5592C9.48356 29.1603 10.3885 30.7187 11.3703 32.2284L11.4985 32.1567C10.7809 30.5114 10.0633 28.8713 9.39193 27.221C9.05023 26.3941 8.73075 25.5655 8.43348 24.7351C8.13228 23.9186 7.879 23.0852 7.67493 22.2391C7.57698 21.8519 7.52536 21.4545 7.52117 21.0551C7.51859 20.9465 7.53776 20.8385 7.57755 20.7374H7.65955C8.06446 20.7066 8.52061 20.6963 8.9614 20.6861H10.2991C12.0828 20.6861 13.8698 20.6434 15.6603 20.558C19.248 20.4247 22.8358 20.1582 26.4236 20.1018C30.0113 20.0454 33.5991 20.1018 37.1868 20.2658L39.8572 20.3786C39.9289 20.03 40.0109 19.6815 40.0929 19.3535L37.1766 19.4201Z" fill="#685945"/>
<path d="M47.9193 20.6143C51.5071 20.7066 55.0948 20.8142 58.6519 20.8859C60.4355 20.9167 62.2396 20.9526 64.0028 21.009C64.8843 21.0397 65.7864 21.0705 66.6218 21.1627H66.6936C66.7142 21.0783 66.7296 20.9927 66.7397 20.9064V20.8552C66.7372 20.867 66.7372 20.8792 66.7397 20.8911L66.7653 20.9577C66.8172 21.0729 66.9031 21.1694 67.0113 21.2345H66.9652H66.9088L66.6884 21.2037C66.5865 21.6069 66.4616 22.0039 66.3143 22.3928C65.6993 24.038 64.9612 25.6731 64.2385 27.308L62.0192 32.2028L62.1525 32.2745C63.1212 30.7625 64.0386 29.1993 64.9253 27.6617C65.3729 26.8758 65.8052 26.0848 66.222 25.2886C66.6372 24.4891 67.0472 23.6844 67.4163 22.8438C67.6151 22.4127 67.7863 21.9693 67.9288 21.5164C67.9678 21.3851 67.9986 21.2516 68.021 21.1166V20.9987C68.021 20.9526 68.021 20.9064 68.021 20.8603C68.0259 20.8006 68.0259 20.7406 68.021 20.6809C68.015 20.6394 68.0065 20.5984 67.9954 20.5579C67.989 20.5188 67.977 20.4808 67.9595 20.4452C67.9285 20.3514 67.8798 20.2644 67.816 20.1889C67.7376 20.1052 67.6412 20.0403 67.5341 19.9993C67.4865 19.9757 67.4368 19.9568 67.3855 19.9429L67.2727 19.907L67.1702 19.8814C67.0473 19.849 66.9223 19.825 66.7961 19.8096C65.853 19.661 64.9663 19.5943 64.0591 19.5226C62.2601 19.3893 60.4714 19.3124 58.6724 19.2509C56.8734 19.1894 55.0846 19.1587 53.2907 19.1587C51.4968 19.1587 49.703 19.1587 47.9091 19.1587C46.1152 19.1587 44.3213 19.1587 42.5326 19.2253C41.7125 19.2253 40.8873 19.2663 40.0621 19.2919C39.9801 19.6353 39.8981 19.9839 39.8264 20.317C40.7233 20.3529 41.6254 20.3939 42.5274 20.4195C44.3367 20.522 46.1254 20.563 47.9193 20.6143Z" fill="white"/>
<path d="M66.9703 21.2138H67.0164C66.9082 21.1487 66.8223 21.0521 66.7704 20.937L66.7448 20.8704C66.7423 20.8585 66.7423 20.8463 66.7448 20.8345V20.8857C66.7347 20.972 66.7193 21.0576 66.6987 21.142L66.9191 21.1727L66.9703 21.2138Z" fill="white"/>
<path d="M26.3261 29.4554C26.4864 30.3831 26.6951 31.3018 26.9514 32.2078C26.9882 31.2681 26.9762 30.3272 26.9155 29.3888C26.8591 28.4509 26.7771 27.518 26.6643 26.5903C26.5516 25.6626 26.4183 24.735 26.2543 23.8124C26.0934 22.8865 25.8847 21.9695 25.629 21.0652C25.5923 22.0048 25.6042 22.9457 25.6649 23.8841C25.7213 24.8221 25.8033 25.7498 25.916 26.6826C26.0288 27.6154 26.1621 28.5328 26.3261 29.4554Z" fill="#685945"/>
<path d="M48.0527 23.8124C47.8887 24.735 47.752 25.6609 47.6427 26.5903C47.5299 27.518 47.4479 28.4509 47.3915 29.3888C47.3308 30.3272 47.3188 31.2681 47.3556 32.2078C47.6119 31.3018 47.8206 30.3831 47.9809 29.4554C48.1449 28.5328 48.2816 27.6086 48.391 26.6826C48.4986 25.7498 48.5857 24.8221 48.6421 23.8841C48.6985 22.9462 48.7241 22.0083 48.678 21.0652C48.4223 21.9695 48.2136 22.8865 48.0527 23.8124Z" fill="white"/>
<path d="M10.9038 57.3943H12.5388C12.7473 57.3943 12.8942 57.3533 12.9796 57.2712C13.0685 57.1892 13.1351 57.0304 13.1795 56.7946C13.2 56.7092 13.2308 56.6459 13.2718 56.6049C13.3162 56.5639 13.3709 56.5417 13.4358 56.5383C13.569 56.5315 13.6545 56.6067 13.692 56.7638L14.0816 58.2809C14.1055 58.3698 14.1055 58.4415 14.0816 58.4962C14.0577 58.5475 14.0098 58.585 13.9381 58.609C13.8697 58.6329 13.8048 58.6346 13.7433 58.6141C13.6818 58.5936 13.6305 58.5509 13.5895 58.486C13.4973 58.3254 13.4119 58.2041 13.3333 58.1221C13.2547 58.0401 13.1658 57.9837 13.0667 57.9529C12.9677 57.9222 12.8429 57.9068 12.6926 57.9068H10.9038V57.3943ZM9.15096 54.319C9.15096 54.2439 9.17658 54.1858 9.22784 54.1448C9.27909 54.1003 9.35768 54.0781 9.46361 54.0781H13.3538C13.4768 54.0781 13.5776 54.061 13.6562 54.0269C13.7382 53.9927 13.8151 53.9585 13.8868 53.9244C13.9586 53.8902 14.0406 53.8731 14.1328 53.8731C14.2353 53.8731 14.3139 53.9022 14.3686 53.9603C14.4267 54.0183 14.4745 54.114 14.5121 54.2473L14.9221 55.6875C14.9495 55.7729 14.9478 55.8447 14.917 55.9028C14.8897 55.9609 14.8384 56.0036 14.7632 56.0309C14.6744 56.0582 14.5941 56.0565 14.5224 56.0258C14.454 55.9916 14.3976 55.9301 14.3532 55.8413C14.2268 55.5782 14.1089 55.3646 13.9996 55.2006C13.8902 55.0366 13.7792 54.9119 13.6664 54.8264C13.5537 54.741 13.4306 54.6829 13.2974 54.6522C13.1675 54.618 13.0155 54.6009 12.8412 54.6009H11.5086V60.2183C11.5086 60.3892 11.5565 60.5173 11.6521 60.6027C11.7478 60.6882 11.8947 60.7309 12.0929 60.7309H12.995C13.2273 60.7309 13.4272 60.6933 13.5947 60.6181C13.7655 60.5429 13.9278 60.3977 14.0816 60.1825C14.2353 59.9638 14.4045 59.6443 14.589 59.224C14.6266 59.1454 14.6744 59.0925 14.7325 59.0651C14.794 59.0344 14.8623 59.0241 14.9375 59.0344C15.0229 59.0515 15.0844 59.0908 15.122 59.1523C15.1596 59.2138 15.1647 59.2924 15.1374 59.388L14.7017 61.0589C14.6642 61.1887 14.6163 61.2844 14.5582 61.3459C14.5001 61.4108 14.4147 61.4433 14.302 61.4433C14.22 61.4433 14.1431 61.4262 14.0713 61.392C14.003 61.3613 13.9278 61.3305 13.8458 61.2998C13.7638 61.269 13.663 61.2537 13.5434 61.2537H9.46361C9.35768 61.2537 9.27909 61.2315 9.22784 61.187C9.17658 61.1426 9.15096 61.0845 9.15096 61.0128C9.15096 60.8829 9.22442 60.7941 9.37135 60.7462L9.65837 60.6847C9.74379 60.6574 9.80701 60.6198 9.84801 60.572C9.89243 60.5242 9.91464 60.4626 9.91464 60.3875V54.9443C9.91464 54.8692 9.89243 54.8076 9.84801 54.7598C9.80701 54.712 9.74379 54.6744 9.65837 54.6471L9.37135 54.5855C9.22442 54.5377 9.15096 54.4489 9.15096 54.319ZM18.839 54.5855L18.5469 54.6471C18.4649 54.6744 18.4017 54.712 18.3573 54.7598C18.3128 54.8076 18.2906 54.8692 18.2906 54.9443V60.3618C18.2906 60.4951 18.3282 60.5908 18.4034 60.6489C18.4786 60.7035 18.593 60.7309 18.7468 60.7309H19.5976C19.7924 60.7309 19.9581 60.7052 20.0948 60.654C20.2314 60.6027 20.3544 60.5105 20.4638 60.3772C20.5731 60.244 20.6825 60.0543 20.7918 59.8083L21.0993 59.1113C21.1403 59.0258 21.1899 58.9677 21.248 58.937C21.3095 58.9062 21.3812 58.9011 21.4632 58.9216C21.5452 58.9421 21.6033 58.9814 21.6375 59.0395C21.6717 59.0942 21.6751 59.1711 21.6477 59.2701L21.1865 61.064C21.1523 61.1939 21.1045 61.2895 21.043 61.351C20.9849 61.416 20.9012 61.4484 20.7918 61.4484C20.7166 61.4484 20.6449 61.4313 20.5765 61.3972C20.5082 61.3664 20.4313 61.334 20.3459 61.2998C20.2605 61.269 20.1546 61.2537 20.0281 61.2537H16.2507C16.1414 61.2537 16.0611 61.2315 16.0098 61.187C15.9586 61.1426 15.933 61.0845 15.933 61.0128C15.933 60.8829 16.0064 60.7941 16.1533 60.7462L16.4455 60.6847C16.5275 60.6574 16.5907 60.6198 16.6351 60.572C16.6795 60.5242 16.7018 60.4626 16.7018 60.3875V54.9443C16.7018 54.8692 16.6795 54.8076 16.6351 54.7598C16.5907 54.712 16.5275 54.6744 16.4455 54.6471L16.1533 54.5855C16.0064 54.5377 15.933 54.4489 15.933 54.319C15.933 54.2439 15.9586 54.1858 16.0098 54.1448C16.0611 54.1003 16.1414 54.0781 16.2507 54.0781H18.7417C18.851 54.0781 18.9296 54.1003 18.9774 54.1448C19.0287 54.1858 19.0543 54.2439 19.0543 54.319C19.0543 54.4489 18.9826 54.5377 18.839 54.5855ZM24.7774 60.3875C24.7774 60.4626 24.7996 60.5242 24.8441 60.572C24.8885 60.6198 24.9517 60.6574 25.0337 60.6847L25.3258 60.7462C25.4694 60.7941 25.5411 60.8829 25.5411 61.0128C25.5411 61.0845 25.5155 61.1426 25.4642 61.187C25.4164 61.2315 25.3378 61.2537 25.2285 61.2537H22.7375C22.6282 61.2537 22.5479 61.2315 22.4966 61.187C22.4454 61.1426 22.4198 61.0845 22.4198 61.0128C22.4198 60.8829 22.4932 60.7941 22.6401 60.7462L22.9323 60.6847C23.0143 60.6574 23.0775 60.6198 23.1219 60.572C23.1664 60.5242 23.1886 60.4626 23.1886 60.3875V54.9443C23.1886 54.8692 23.1664 54.8076 23.1219 54.7598C23.0775 54.712 23.0143 54.6744 22.9323 54.6471L22.6401 54.5855C22.4932 54.5377 22.4198 54.4489 22.4198 54.319C22.4198 54.2439 22.4454 54.1858 22.4966 54.1448C22.5479 54.1003 22.6282 54.0781 22.7375 54.0781H25.2285C25.3378 54.0781 25.4164 54.1003 25.4642 54.1448C25.5155 54.1858 25.5411 54.2439 25.5411 54.319C25.5411 54.4489 25.4694 54.5377 25.3258 54.5855L25.0337 54.6471C24.9517 54.6744 24.8885 54.712 24.8441 54.7598C24.7996 54.8076 24.7774 54.8692 24.7774 54.9443V60.3875ZM29.4641 61.4125C29.1839 61.4125 28.943 61.3801 28.7414 61.3152C28.5398 61.2502 28.3741 61.1853 28.2443 61.1204C28.1178 61.0555 28.0239 61.023 27.9624 61.023C27.894 61.023 27.8377 61.0435 27.7932 61.0845C27.7488 61.1221 27.7061 61.1682 27.6651 61.2229C27.6275 61.2776 27.5865 61.3254 27.5421 61.3664C27.4977 61.4074 27.443 61.4279 27.3781 61.4279C27.3063 61.4279 27.2465 61.4057 27.1987 61.3613C27.1509 61.3169 27.1184 61.2434 27.1013 61.1409L26.7528 59.4803C26.7391 59.4051 26.7477 59.3402 26.7784 59.2855C26.8126 59.2308 26.8672 59.1898 26.9424 59.1625C27.0278 59.1352 27.1013 59.1386 27.1628 59.1728C27.2243 59.2035 27.2773 59.2633 27.3217 59.3521C27.5165 59.7314 27.7232 60.0338 27.9419 60.2593C28.1606 60.4814 28.3895 60.6403 28.6287 60.736C28.8679 60.8317 29.1122 60.8795 29.3616 60.8795C29.7101 60.8795 29.9852 60.789 30.1868 60.6079C30.3884 60.4268 30.4892 60.1842 30.4892 59.8801C30.4926 59.6853 30.4482 59.5093 30.3559 59.3521C30.2637 59.1916 30.0877 59.0361 29.828 58.8857C29.5717 58.7354 29.1925 58.5799 28.6902 58.4193C28.1742 58.2485 27.7591 58.0537 27.4447 57.835C27.1304 57.6164 26.9031 57.3601 26.763 57.0662C26.6229 56.769 26.5529 56.4256 26.5529 56.036C26.5529 55.6226 26.6503 55.2587 26.845 54.9443C27.0432 54.6265 27.3217 54.3805 27.6805 54.2063C28.0393 54.032 28.4561 53.9449 28.9311 53.9449C29.2386 53.9449 29.4932 53.9756 29.6947 54.0371C29.8998 54.0986 30.0672 54.1618 30.197 54.2268C30.3269 54.2917 30.4345 54.3242 30.5199 54.3242C30.5985 54.3242 30.6566 54.2917 30.6942 54.2268C30.7352 54.1618 30.7779 54.0969 30.8223 54.032C30.8702 53.9637 30.9419 53.9295 31.0376 53.9295C31.1128 53.9295 31.176 53.9534 31.2272 54.0013C31.2785 54.0491 31.3229 54.1396 31.3605 54.2729L31.8423 55.9438C31.8696 56.0326 31.8662 56.1129 31.832 56.1847C31.8013 56.2564 31.7466 56.3043 31.668 56.3282C31.586 56.3555 31.5125 56.3538 31.4476 56.323C31.3861 56.2889 31.3332 56.2325 31.2887 56.1539C31.0803 55.7336 30.8565 55.4022 30.6173 55.1596C30.3781 54.9136 30.1287 54.7376 29.869 54.6317C29.6127 54.5258 29.3548 54.4728 29.0951 54.4728C28.7431 54.4728 28.4647 54.5736 28.2596 54.7752C28.0546 54.9734 27.9521 55.2331 27.9521 55.5542C27.9521 55.749 27.9965 55.9301 28.0854 56.0975C28.1776 56.2615 28.3502 56.4238 28.603 56.5844C28.8559 56.7416 29.2232 56.9073 29.705 57.0816C30.2312 57.273 30.6498 57.478 30.9607 57.6967C31.2751 57.9153 31.5006 58.1631 31.6373 58.4398C31.7739 58.7132 31.8406 59.0275 31.8372 59.3829C31.8372 59.7553 31.7432 60.0953 31.5553 60.4028C31.3673 60.7104 31.0974 60.9564 30.7455 61.1409C30.3935 61.322 29.9664 61.4125 29.4641 61.4125Z" fill="#685945"/>
<path d="M36.8177 54.0781C36.951 54.0781 37.0586 54.0628 37.1406 54.032C37.2261 53.9978 37.3029 53.9654 37.3713 53.9346C37.443 53.9039 37.5148 53.8885 37.5865 53.8885C37.6959 53.8885 37.7779 53.9158 37.8326 53.9705C37.8907 54.0252 37.9385 54.1174 37.9761 54.2473L38.3912 55.7439C38.4152 55.8259 38.4049 55.8942 38.3605 55.9489C38.3195 56.0036 38.258 56.0377 38.176 56.0514C38.1076 56.0617 38.041 56.0548 37.9761 56.0309C37.9146 56.0036 37.8633 55.9455 37.8223 55.8566C37.6583 55.5047 37.5028 55.2399 37.3559 55.0622C37.2124 54.8811 37.0603 54.7598 36.8997 54.6983C36.7426 54.6334 36.5563 54.6009 36.3411 54.6009H35.2135V60.3875C35.2135 60.4626 35.234 60.5276 35.275 60.5822C35.316 60.6335 35.3809 60.6677 35.4698 60.6847L35.9208 60.7462C36.0062 60.7599 36.0677 60.789 36.1053 60.8334C36.1429 60.8744 36.1617 60.9342 36.1617 61.0128C36.1617 61.0845 36.1361 61.1426 36.0848 61.187C36.037 61.2315 35.9584 61.2537 35.849 61.2537H33.1685C33.0625 61.2537 32.984 61.2315 32.9327 61.187C32.8815 61.1426 32.8558 61.0845 32.8558 61.0128C32.8558 60.8829 32.9293 60.7941 33.0762 60.7462L33.3632 60.6847C33.4487 60.6574 33.5119 60.6198 33.5529 60.572C33.5973 60.5242 33.6195 60.4626 33.6195 60.3875V54.9443C33.6195 54.8692 33.5973 54.8076 33.5529 54.7598C33.5119 54.712 33.4487 54.6744 33.3632 54.6471L33.0762 54.5855C32.9293 54.5377 32.8558 54.4489 32.8558 54.319C32.8558 54.2439 32.8815 54.1858 32.9327 54.1448C32.984 54.1003 33.0625 54.0781 33.1685 54.0781H36.8177ZM34.578 57.5788H36.2334C36.4453 57.5788 36.5939 57.5378 36.6794 57.4558C36.7682 57.3703 36.8382 57.2046 36.8895 56.9586C36.91 56.88 36.9408 56.8236 36.9818 56.7895C37.0262 56.7553 37.0791 56.7365 37.1406 56.7331C37.2842 56.7262 37.3747 56.7963 37.4123 56.9432L37.7916 58.4706C37.8155 58.5594 37.8138 58.6295 37.7864 58.6807C37.7591 58.7286 37.713 58.7644 37.6481 58.7884C37.5763 58.8089 37.5097 58.8089 37.4482 58.7884C37.3901 58.7644 37.3354 58.7149 37.2842 58.6397C37.1953 58.4928 37.1133 58.38 37.0381 58.3014C36.963 58.2229 36.8758 58.1682 36.7767 58.1374C36.6811 58.1067 36.5563 58.0913 36.4026 58.0913H34.578V57.5788ZM44.703 58.1836L44.5185 55.1545C44.5116 55.0075 44.4757 54.8931 44.4108 54.8111C44.3493 54.7291 44.2485 54.6727 44.1084 54.6419L43.8727 54.5958C43.7633 54.5685 43.6881 54.5343 43.6471 54.4933C43.6061 54.4489 43.5856 54.3908 43.5856 54.319C43.5856 54.2473 43.6113 54.1892 43.6625 54.1448C43.7172 54.1003 43.7924 54.0781 43.888 54.0781H45.7383C45.8374 54.0781 45.9126 54.1003 45.9638 54.1448C46.0185 54.1892 46.0458 54.2473 46.0458 54.319C46.0458 54.3908 46.0219 54.4489 45.9741 54.4933C45.9296 54.5343 45.8562 54.5685 45.7537 54.5958L45.5333 54.6368C45.359 54.6812 45.2428 54.7496 45.1848 54.8418C45.1301 54.9307 45.1079 55.0468 45.1181 55.1903L45.3078 58.1784C45.3214 58.3527 45.3317 58.5235 45.3385 58.691C45.3488 58.8584 45.3556 59.0327 45.359 59.2138C45.3693 59.6409 45.2736 60.0219 45.072 60.3567C44.8704 60.6916 44.5629 60.9564 44.1494 61.1512C43.7394 61.3425 43.2217 61.4382 42.5964 61.4382C41.9472 61.4382 41.4039 61.3476 40.9666 61.1665C40.5326 60.9854 40.2063 60.7292 39.9876 60.3977C39.7724 60.0663 39.6681 59.6768 39.675 59.2291C39.675 59.1471 39.6784 59.0463 39.6852 58.9267C39.6921 58.8037 39.6989 58.6602 39.7057 58.4962C39.716 58.3322 39.7279 58.1511 39.7416 57.9529L39.9107 54.9751C39.9176 54.8794 39.8954 54.8059 39.8441 54.7547C39.7963 54.7034 39.7109 54.6658 39.5878 54.6419L39.3316 54.5958C39.1402 54.5548 39.0446 54.4642 39.0446 54.3242C39.0446 54.249 39.0702 54.1892 39.1214 54.1448C39.1761 54.1003 39.253 54.0781 39.3521 54.0781H42.0532C42.1522 54.0781 42.2274 54.1003 42.2787 54.1448C42.3299 54.1892 42.3555 54.249 42.3555 54.3242C42.3555 54.3925 42.3333 54.4489 42.2889 54.4933C42.2479 54.5377 42.1745 54.5702 42.0685 54.5907L41.8071 54.6419C41.7046 54.6624 41.6312 54.6983 41.5867 54.7496C41.5423 54.7974 41.5167 54.8709 41.5099 54.9699L41.3356 57.9529C41.3219 58.1887 41.3117 58.404 41.3048 58.5987C41.3014 58.7901 41.298 58.9626 41.2946 59.1164C41.2843 59.7041 41.4279 60.138 41.7251 60.4182C42.0224 60.6984 42.4341 60.8385 42.9603 60.8385C43.3362 60.8385 43.6574 60.7736 43.9239 60.6437C44.1939 60.5105 44.4006 60.3226 44.5441 60.08C44.6876 59.8373 44.7559 59.5469 44.7491 59.2086C44.7423 58.9695 44.7354 58.773 44.7286 58.6192C44.7218 58.462 44.7132 58.3168 44.703 58.1836ZM53.3231 56.5434C53.3231 56.868 53.2497 57.1653 53.1027 57.4353C52.9558 57.7018 52.7474 57.9256 52.4774 58.1067C52.2075 58.2844 51.8863 58.4074 51.5139 58.4757C51.3738 58.4996 51.2439 58.5253 51.1243 58.5526C51.0082 58.5799 50.8886 58.6038 50.7656 58.6243C50.646 58.6448 50.5127 58.6551 50.3658 58.6551C50.1539 58.6551 49.9506 58.6414 49.7559 58.6141C49.5645 58.5833 49.3886 58.5406 49.228 58.486C49.0674 58.4279 48.9273 58.3612 48.8077 58.2861L48.8384 57.8145C48.9341 57.8829 49.0469 57.941 49.1767 57.9888C49.31 58.0366 49.4535 58.0742 49.6072 58.1016C49.7644 58.1255 49.9284 58.1374 50.0993 58.1374C50.5947 58.1374 50.9808 58.0059 51.2576 57.7428C51.5378 57.4763 51.6779 57.0833 51.6779 56.5639C51.6779 56.1744 51.5959 55.8293 51.4319 55.5286C51.2679 55.2279 51.0355 54.9922 50.7348 54.8213C50.4341 54.6471 50.0839 54.5599 49.6841 54.5599H49.2331V60.3875C49.2331 60.4626 49.2519 60.5242 49.2895 60.572C49.3271 60.6198 49.3834 60.6574 49.4586 60.6847L49.8071 60.7462C49.8926 60.7804 49.9506 60.818 49.9814 60.859C50.0121 60.8966 50.0275 60.9478 50.0275 61.0128C50.0275 61.1734 49.9233 61.2537 49.7149 61.2537H47.1932C47.0838 61.2537 47.0035 61.2315 46.9523 61.187C46.901 61.1426 46.8754 61.0845 46.8754 61.0128C46.8754 60.8829 46.9489 60.7941 47.0958 60.7462L47.3879 60.6847C47.47 60.6574 47.5332 60.6198 47.5776 60.572C47.622 60.5242 47.6442 60.4626 47.6442 60.3875V54.9443C47.6442 54.8692 47.622 54.8076 47.5776 54.7598C47.5332 54.712 47.47 54.6744 47.3879 54.6471L47.0958 54.5855C46.9489 54.5377 46.8754 54.4489 46.8754 54.319C46.8754 54.2439 46.901 54.1858 46.9523 54.1448C47.0035 54.1003 47.0838 54.0781 47.1932 54.0781H49.7405C50.5093 54.0781 51.1602 54.1841 51.6933 54.3959C52.2263 54.6043 52.6312 54.8948 52.908 55.2672C53.1848 55.6362 53.3231 56.0617 53.3231 56.5434ZM50.3607 58.445L51.9188 58.2656L53.2463 60.3823C53.3078 60.4814 53.371 60.56 53.4359 60.6181C53.5042 60.6728 53.5948 60.7155 53.7075 60.7462C53.8135 60.7804 53.8852 60.818 53.9228 60.859C53.9638 60.8966 53.9843 60.9478 53.9843 61.0128C53.9843 61.0845 53.957 61.1426 53.9023 61.187C53.851 61.2315 53.7708 61.2537 53.6614 61.2537H51.478C51.273 61.2537 51.1705 61.1734 51.1705 61.0128C51.1705 60.9683 51.1824 60.9308 51.2064 60.9C51.2303 60.8693 51.2696 60.8419 51.3242 60.818L51.4729 60.777C51.5446 60.7428 51.5856 60.7035 51.5959 60.6591C51.6061 60.6113 51.5856 60.5447 51.5344 60.4592L50.3607 58.445ZM56.8587 61.0128C56.8587 61.0845 56.8314 61.1426 56.7767 61.187C56.7254 61.228 56.6451 61.2502 56.5358 61.2537H54.8393C54.7299 61.2502 54.6479 61.228 54.5933 61.187C54.542 61.1426 54.5164 61.0845 54.5164 61.0128C54.5164 60.8932 54.5933 60.8026 54.747 60.7411L54.9879 60.6745C55.1417 60.6164 55.2476 60.5515 55.3057 60.4797C55.3638 60.408 55.3928 60.2918 55.3928 60.1312V55.6875C55.3928 55.5782 55.3792 55.4893 55.3518 55.421C55.3245 55.3492 55.2613 55.2518 55.1622 55.1288L54.7265 54.5907C54.6719 54.5155 54.6343 54.4574 54.6138 54.4164C54.5933 54.3754 54.583 54.3344 54.583 54.2934C54.583 54.2216 54.6069 54.1687 54.6548 54.1345C54.7026 54.0969 54.7658 54.0781 54.8444 54.0781H56.013C56.1155 54.0781 56.2009 54.0969 56.2693 54.1345C56.3376 54.1687 56.4077 54.2353 56.4794 54.3344L60.467 59.5982L60.2209 60.203V55.2006C60.2209 55.0468 60.1953 54.9341 60.1441 54.8623C60.0928 54.7871 59.9835 54.7188 59.816 54.6573L59.5803 54.5907C59.4265 54.5258 59.3496 54.4352 59.3496 54.319C59.3496 54.2439 59.3752 54.1858 59.4265 54.1448C59.4812 54.1003 59.5615 54.0781 59.6674 54.0781H61.369C61.4749 54.0781 61.5535 54.1003 61.6048 54.1448C61.6595 54.1858 61.6868 54.2439 61.6868 54.319C61.6868 54.4386 61.6116 54.5292 61.4613 54.5907L61.2204 54.6573C61.0632 54.712 60.9556 54.7769 60.8975 54.8521C60.8428 54.9238 60.8155 55.04 60.8155 55.2006V59.7776C60.8155 59.8903 60.8257 59.986 60.8462 60.0646C60.8667 60.1432 60.9026 60.2166 60.9539 60.285L61.2665 60.7001C61.3314 60.7821 61.3707 60.8453 61.3844 60.8898C61.4015 60.9342 61.41 60.9786 61.41 61.023C61.41 61.0948 61.3861 61.1512 61.3383 61.1922C61.2904 61.2332 61.2204 61.2537 61.1281 61.2537H59.7699C59.6059 61.2537 59.5239 61.187 59.5239 61.0538C59.5239 60.9991 59.5119 60.9478 59.488 60.9C59.4675 60.8488 59.4077 60.7565 59.3086 60.6232L55.4953 55.5645L55.9874 55.2211V60.1312C55.9874 60.285 56.013 60.3977 56.0643 60.4695C56.1155 60.5412 56.2248 60.6096 56.3923 60.6745L56.628 60.7411C56.7818 60.8026 56.8587 60.8932 56.8587 61.0128ZM64.9195 60.3875C64.9195 60.4626 64.9418 60.5242 64.9862 60.572C65.0306 60.6198 65.0938 60.6574 65.1758 60.6847L65.468 60.7462C65.6115 60.7941 65.6832 60.8829 65.6832 61.0128C65.6832 61.0845 65.6576 61.1426 65.6063 61.187C65.5585 61.2315 65.4799 61.2537 65.3706 61.2537H62.8796C62.7703 61.2537 62.69 61.2315 62.6387 61.187C62.5875 61.1426 62.5619 61.0845 62.5619 61.0128C62.5619 60.8829 62.6353 60.7941 62.7823 60.7462L63.0744 60.6847C63.1564 60.6574 63.2196 60.6198 63.264 60.572C63.3085 60.5242 63.3307 60.4626 63.3307 60.3875V54.9443C63.3307 54.8692 63.3085 54.8076 63.264 54.7598C63.2196 54.712 63.1564 54.6744 63.0744 54.6471L62.7823 54.5855C62.6353 54.5377 62.5619 54.4489 62.5619 54.319C62.5619 54.2439 62.5875 54.1858 62.6387 54.1448C62.69 54.1003 62.7703 54.0781 62.8796 54.0781H65.3706C65.4799 54.0781 65.5585 54.1003 65.6063 54.1448C65.6576 54.1858 65.6832 54.2439 65.6832 54.319C65.6832 54.4489 65.6115 54.5377 65.468 54.5855L65.1758 54.6471C65.0938 54.6744 65.0306 54.712 64.9862 54.7598C64.9418 54.8076 64.9195 54.8692 64.9195 54.9443V60.3875ZM68.002 54.0781H71.5897C71.7196 54.0781 71.8255 54.0628 71.9075 54.032C71.9895 53.9978 72.063 53.9654 72.1279 53.9346C72.1928 53.9039 72.2629 53.8885 72.338 53.8885C72.4508 53.8885 72.5362 53.9158 72.5943 53.9705C72.6558 54.0252 72.7054 54.1191 72.7429 54.2524L73.0812 55.8976C73.1017 55.9967 73.0949 56.0787 73.0607 56.1437C73.0266 56.2052 72.9668 56.2428 72.8813 56.2564C72.8027 56.2735 72.7327 56.2684 72.6712 56.241C72.6131 56.2103 72.5636 56.1505 72.5226 56.0617C72.3449 55.6653 72.1928 55.3646 72.0664 55.1596C71.94 54.9546 71.8118 54.8145 71.682 54.7393C71.5556 54.6607 71.4018 54.6214 71.2207 54.6214H70.5954V60.3875C70.5954 60.4626 70.6176 60.5242 70.662 60.572C70.7065 60.6198 70.7697 60.6574 70.8517 60.6847L71.1387 60.7462C71.2856 60.7941 71.3591 60.8829 71.3591 61.0128C71.3591 61.1734 71.2549 61.2537 71.0464 61.2537H68.5504C68.4445 61.2537 68.3659 61.2315 68.3146 61.187C68.2634 61.1426 68.2377 61.0845 68.2377 61.0128C68.2377 60.8829 68.3112 60.7941 68.4581 60.7462L68.7452 60.6847C68.8306 60.6574 68.8938 60.6198 68.9348 60.572C68.9792 60.5242 69.0014 60.4626 69.0014 60.3875V54.6214H68.3761C68.1984 54.6214 68.0447 54.6607 67.9148 54.7393C67.785 54.8145 67.6569 54.9546 67.5304 55.1596C67.404 55.3646 67.252 55.6653 67.0743 56.0617C67.0367 56.1505 66.9872 56.2103 66.9256 56.241C66.8641 56.2684 66.7941 56.2735 66.7155 56.2564C66.6301 56.2428 66.5703 56.2052 66.5361 56.1437C66.5019 56.0787 66.4951 55.9967 66.5156 55.8976L66.8539 54.2524C66.8915 54.1191 66.9393 54.0252 66.9974 53.9705C67.0589 53.9158 67.146 53.8885 67.2588 53.8885C67.334 53.8885 67.404 53.9039 67.4689 53.9346C67.5339 53.9654 67.6073 53.9978 67.6893 54.032C67.7713 54.0628 67.8755 54.0781 68.002 54.0781ZM79.4594 58.1836L79.2749 55.1545C79.2681 55.0075 79.2322 54.8931 79.1673 54.8111C79.1058 54.7291 79.005 54.6727 78.8649 54.6419L78.6291 54.5958C78.5198 54.5685 78.4446 54.5343 78.4036 54.4933C78.3626 54.4489 78.3421 54.3908 78.3421 54.319C78.3421 54.2473 78.3677 54.1892 78.419 54.1448C78.4737 54.1003 78.5488 54.0781 78.6445 54.0781H80.4948C80.5939 54.0781 80.669 54.1003 80.7203 54.1448C80.7749 54.1892 80.8023 54.2473 80.8023 54.319C80.8023 54.3908 80.7784 54.4489 80.7305 54.4933C80.6861 54.5343 80.6126 54.5685 80.5101 54.5958L80.2897 54.6368C80.1155 54.6812 79.9993 54.7496 79.9412 54.8418C79.8865 54.9307 79.8643 55.0468 79.8746 55.1903L80.0642 58.1784C80.0779 58.3527 80.0881 58.5235 80.095 58.691C80.1052 58.8584 80.1121 59.0327 80.1155 59.2138C80.1257 59.6409 80.0301 60.0219 79.8285 60.3567C79.6269 60.6916 79.3193 60.9564 78.9059 61.1512C78.4959 61.3425 77.9782 61.4382 77.3529 61.4382C76.7037 61.4382 76.1604 61.3476 75.723 61.1665C75.2891 60.9854 74.9628 60.7292 74.7441 60.3977C74.5288 60.0663 74.4246 59.6768 74.4314 59.2291C74.4314 59.1471 74.4349 59.0463 74.4417 58.9267C74.4485 58.8037 74.4554 58.6602 74.4622 58.4962C74.4724 58.3322 74.4844 58.1511 74.4981 57.9529L74.6672 54.9751C74.674 54.8794 74.6518 54.8059 74.6006 54.7547C74.5527 54.7034 74.4673 54.6658 74.3443 54.6419L74.088 54.5958C73.8967 54.5548 73.801 54.4642 73.801 54.3242C73.801 54.249 73.8266 54.1892 73.8779 54.1448C73.9326 54.1003 74.0095 54.0781 74.1085 54.0781H76.8096C76.9087 54.0781 76.9839 54.1003 77.0351 54.1448C77.0864 54.1892 77.112 54.249 77.112 54.3242C77.112 54.3925 77.0898 54.4489 77.0454 54.4933C77.0044 54.5377 76.9309 54.5702 76.825 54.5907L76.5636 54.6419C76.4611 54.6624 76.3876 54.6983 76.3432 54.7496C76.2988 54.7974 76.2732 54.8709 76.2663 54.9699L76.0921 57.9529C76.0784 58.1887 76.0681 58.404 76.0613 58.5987C76.0579 58.7901 76.0545 58.9626 76.0511 59.1164C76.0408 59.7041 76.1843 60.138 76.4816 60.4182C76.7789 60.6984 77.1906 60.8385 77.7168 60.8385C78.0927 60.8385 78.4139 60.7736 78.6804 60.6437C78.9503 60.5105 79.157 60.3226 79.3005 60.08C79.4441 59.8373 79.5124 59.5469 79.5056 59.2086C79.4987 58.9695 79.4919 58.773 79.4851 58.6192C79.4782 58.462 79.4697 58.3168 79.4594 58.1836ZM88.0796 56.5434C88.0796 56.868 88.0061 57.1653 87.8592 57.4353C87.7123 57.7018 87.5038 57.9256 87.2339 58.1067C86.964 58.2844 86.6428 58.4074 86.2703 58.4757C86.1302 58.4996 86.0004 58.5253 85.8808 58.5526C85.7646 58.5799 85.645 58.6038 85.522 58.6243C85.4024 58.6448 85.2692 58.6551 85.1223 58.6551C84.9104 58.6551 84.7071 58.6414 84.5123 58.6141C84.321 58.5833 84.145 58.5406 83.9844 58.486C83.8238 58.4279 83.6837 58.3612 83.5641 58.2861L83.5949 57.8145C83.6906 57.8829 83.8033 57.941 83.9332 57.9888C84.0664 58.0366 84.2099 58.0742 84.3637 58.1016C84.5209 58.1255 84.6849 58.1374 84.8557 58.1374C85.3512 58.1374 85.7373 58.0059 86.0141 57.7428C86.2943 57.4763 86.4343 57.0833 86.4343 56.5639C86.4343 56.1744 86.3523 55.8293 86.1883 55.5286C86.0243 55.2279 85.792 54.9922 85.4913 54.8213C85.1906 54.6471 84.8404 54.5599 84.4406 54.5599H83.9895V60.3875C83.9895 60.4626 84.0083 60.5242 84.0459 60.572C84.0835 60.6198 84.1399 60.6574 84.2151 60.6847L84.5636 60.7462C84.649 60.7804 84.7071 60.818 84.7378 60.859C84.7686 60.8966 84.784 60.9478 84.784 61.0128C84.784 61.1734 84.6798 61.2537 84.4713 61.2537H81.9496C81.8403 61.2537 81.76 61.2315 81.7088 61.187C81.6575 61.1426 81.6319 61.0845 81.6319 61.0128C81.6319 60.8829 81.7053 60.7941 81.8523 60.7462L82.1444 60.6847C82.2264 60.6574 82.2896 60.6198 82.334 60.572C82.3785 60.5242 82.4007 60.4626 82.4007 60.3875V54.9443C82.4007 54.8692 82.3785 54.8076 82.334 54.7598C82.2896 54.712 82.2264 54.6744 82.1444 54.6471L81.8523 54.5855C81.7053 54.5377 81.6319 54.4489 81.6319 54.319C81.6319 54.2439 81.6575 54.1858 81.7088 54.1448C81.76 54.1003 81.8403 54.0781 81.9496 54.0781H84.497C85.2658 54.0781 85.9167 54.1841 86.4497 54.3959C86.9828 54.6043 87.3877 54.8948 87.6644 55.2672C87.9412 55.6362 88.0796 56.0617 88.0796 56.5434ZM85.1171 58.445L86.6752 58.2656L88.0027 60.3823C88.0642 60.4814 88.1274 60.56 88.1924 60.6181C88.2607 60.6728 88.3512 60.7155 88.464 60.7462C88.5699 60.7804 88.6417 60.818 88.6793 60.859C88.7203 60.8966 88.7408 60.9478 88.7408 61.0128C88.7408 61.0845 88.7134 61.1426 88.6588 61.187C88.6075 61.2315 88.5272 61.2537 88.4179 61.2537H86.2345C86.0294 61.2537 85.9269 61.1734 85.9269 61.0128C85.9269 60.9683 85.9389 60.9308 85.9628 60.9C85.9867 60.8693 86.026 60.8419 86.0807 60.818L86.2293 60.777C86.3011 60.7428 86.3421 60.7035 86.3523 60.6591C86.3626 60.6113 86.3421 60.5447 86.2908 60.4592L85.1171 58.445ZM91.118 57.3943H92.753C92.9614 57.3943 93.1083 57.3533 93.1938 57.2712C93.2826 57.1892 93.3492 57.0304 93.3937 56.7946C93.4142 56.7092 93.4449 56.6459 93.4859 56.6049C93.5303 56.5639 93.585 56.5417 93.6499 56.5383C93.7832 56.5315 93.8686 56.6067 93.9062 56.7638L94.2957 58.2809C94.3196 58.3698 94.3196 58.4415 94.2957 58.4962C94.2718 58.5475 94.224 58.585 94.1522 58.609C94.0839 58.6329 94.0189 58.6346 93.9574 58.6141C93.8959 58.5936 93.8447 58.5509 93.8037 58.486C93.7114 58.3254 93.626 58.2041 93.5474 58.1221C93.4688 58.0401 93.38 57.9837 93.2809 57.9529C93.1818 57.9222 93.0571 57.9068 92.9067 57.9068H91.118V57.3943ZM89.3651 54.319C89.3651 54.2439 89.3907 54.1858 89.442 54.1448C89.4932 54.1003 89.5718 54.0781 89.6778 54.0781H93.5679C93.6909 54.0781 93.7917 54.061 93.8703 54.0269C93.9523 53.9927 94.0292 53.9585 94.101 53.9244C94.1727 53.8902 94.2547 53.8731 94.347 53.8731C94.4495 53.8731 94.5281 53.9022 94.5827 53.9603C94.6408 54.0183 94.6887 54.114 94.7263 54.2473L95.1363 55.6875C95.1636 55.7729 95.1619 55.8447 95.1312 55.9028C95.1038 55.9609 95.0526 56.0036 94.9774 56.0309C94.8886 56.0582 94.8083 56.0565 94.7365 56.0258C94.6682 55.9916 94.6118 55.9301 94.5674 55.8413C94.4409 55.5782 94.3231 55.3646 94.2137 55.2006C94.1044 55.0366 93.9933 54.9119 93.8806 54.8264C93.7678 54.741 93.6448 54.6829 93.5115 54.6522C93.3817 54.618 93.2296 54.6009 93.0554 54.6009H91.7228V60.2183C91.7228 60.3892 91.7706 60.5173 91.8663 60.6027C91.962 60.6882 92.1089 60.7309 92.3071 60.7309H93.2091C93.4415 60.7309 93.6414 60.6933 93.8088 60.6181C93.9797 60.5429 94.142 60.3977 94.2957 60.1825C94.4495 59.9638 94.6186 59.6443 94.8031 59.224C94.8407 59.1454 94.8886 59.0925 94.9466 59.0651C95.0081 59.0344 95.0765 59.0241 95.1517 59.0344C95.2371 59.0515 95.2986 59.0908 95.3362 59.1523C95.3738 59.2138 95.3789 59.2924 95.3515 59.388L94.9159 61.0589C94.8783 61.1887 94.8305 61.2844 94.7724 61.3459C94.7143 61.4108 94.6289 61.4433 94.5161 61.4433C94.4341 61.4433 94.3572 61.4262 94.2855 61.392C94.2171 61.3613 94.142 61.3305 94.06 61.2998C93.9779 61.269 93.8771 61.2537 93.7576 61.2537H89.6778C89.5718 61.2537 89.4932 61.2315 89.442 61.187C89.3907 61.1426 89.3651 61.0845 89.3651 61.0128C89.3651 60.8829 89.4386 60.7941 89.5855 60.7462L89.8725 60.6847C89.9579 60.6574 90.0212 60.6198 90.0622 60.572C90.1066 60.5242 90.1288 60.4626 90.1288 60.3875V54.9443C90.1288 54.8692 90.1066 54.8076 90.0622 54.7598C90.0212 54.712 89.9579 54.6744 89.8725 54.6471L89.5855 54.5855C89.4386 54.5377 89.3651 54.4489 89.3651 54.319Z" fill="#7C7A78"/>
</g>
<defs>
<filter id="filter0_d_1_240" x="0" y="0" width="99.3926" height="69.4485" filterUnits="userSpaceOnUse" color-interpolation-filters="sRGB">
<feFlood flood-opacity="0" result="BackgroundImageFix"/>
<feColorMatrix in="SourceAlpha" type="matrix" values="0 0 0 0 0 0 0 0 0 0 0 0 0 0 0 0 0 0 127 0" result="hardAlpha"/>
<feOffset dy="4"/>
<feGaussianBlur stdDeviation="2"/>
<feComposite in2="hardAlpha" operator="out"/>
<feColorMatrix type="matrix" values="0 0 0 0 0 0 0 0 0 0 0 0 0 0 0 0 0 0 0.25 0"/>
<feBlend mode="normal" in2="BackgroundImageFix" result="effect1_dropShadow_1_240"/>
<feBlend mode="normal" in="SourceGraphic" in2="effect1_dropShadow_1_240" result="shape"/>
</filter>
</defs>
</svg>
