<svg width="20" height="21" viewBox="0 0 20 21" fill="none" xmlns="http://www.w3.org/2000/svg">
<g id="Fether Icons /map-pin" clip-path="url(#clip0_1_327)">
<path id="Vector (Stroke)" fill-rule="evenodd" clip-rule="evenodd" d="M9.865 2.46228C8.12076 2.46228 6.44796 3.15518 5.21459 4.38854C3.98123 5.62191 3.28833 7.29471 3.28833 9.03895C3.28833 11.5858 4.94544 14.0571 6.76242 15.9751C7.6541 16.9163 8.54857 17.6868 9.22104 18.2223C9.47131 18.4216 9.68991 18.5876 9.865 18.717C10.0401 18.5876 10.2587 18.4216 10.509 18.2223C11.1814 17.6868 12.0759 16.9163 12.9676 15.9751C14.7846 14.0571 16.4417 11.5858 16.4417 9.03895C16.4417 7.29471 15.7488 5.62191 14.5154 4.38854C13.282 3.15518 11.6092 2.46228 9.865 2.46228ZM9.865 19.726C9.40899 20.41 9.40878 20.4099 9.40854 20.4097L9.40619 20.4082L9.40071 20.4045L9.38187 20.3918C9.36587 20.3809 9.34304 20.3653 9.31384 20.3451C9.25545 20.3046 9.17154 20.2457 9.06576 20.1693C8.85428 20.0166 8.55489 19.7936 8.19685 19.5085C7.48205 18.9393 6.52684 18.1171 5.56883 17.1058C3.68644 15.1189 1.64417 12.2467 1.64417 9.03895C1.64417 6.85865 2.51029 4.76765 4.05199 3.22594C5.5937 1.68424 7.6847 0.818115 9.865 0.818115C12.0453 0.818115 14.1363 1.68424 15.678 3.22594C17.2197 4.76765 18.0858 6.85865 18.0858 9.03895C18.0858 12.2467 16.0436 15.1189 14.1612 17.1058C13.2032 18.1171 12.2479 18.9393 11.5332 19.5085C11.1751 19.7936 10.8757 20.0166 10.6642 20.1693C10.5585 20.2457 10.4745 20.3046 10.4162 20.3451C10.387 20.3653 10.3641 20.3809 10.3481 20.3918L10.3293 20.4045L10.3238 20.4082L10.3221 20.4093C10.3218 20.4095 10.321 20.41 9.865 19.726ZM9.865 19.726L10.321 20.41C10.0449 20.5941 9.68468 20.5938 9.40854 20.4097L9.865 19.726Z" fill="#75634D"/>
<path id="Vector (Stroke)_2" fill-rule="evenodd" clip-rule="evenodd" d="M9.86499 7.3949C8.95695 7.3949 8.22083 8.13102 8.22083 9.03907C8.22083 9.94711 8.95695 10.6832 9.86499 10.6832C10.773 10.6832 11.5092 9.94711 11.5092 9.03907C11.5092 8.13102 10.773 7.3949 9.86499 7.3949ZM6.57666 9.03907C6.57666 7.22297 8.0489 5.75073 9.86499 5.75073C11.6811 5.75073 13.1533 7.22297 13.1533 9.03907C13.1533 10.8552 11.6811 12.3274 9.86499 12.3274C8.0489 12.3274 6.57666 10.8552 6.57666 9.03907Z" fill="#75634D"/>
</g>
<defs>
<clipPath id="clip0_1_327">
<rect width="19.73" height="19.73" fill="white" transform="translate(0 0.818115)"/>
</clipPath>
</defs>
</svg>
