<svg width="20" height="21" viewBox="0 0 20 21" fill="none" xmlns="http://www.w3.org/2000/svg">
<g id="Phosphor Icons Fill / Phone">
<path id="Vector" d="M13.3779 11.7405L13.3778 11.7406L13.3826 11.7426L16.9948 13.283C17.1833 13.3669 17.3403 13.5085 17.4432 13.6875C17.5459 13.8662 17.5893 14.0729 17.5672 14.2778C17.4392 15.2495 16.963 16.1419 16.2269 16.7893C15.4902 17.4372 14.5433 17.7956 13.5623 17.7979C7.59958 17.7978 2.74787 12.9461 2.7477 6.9834C2.74994 6.0023 3.10833 5.05538 3.75627 4.31866C4.40364 3.58259 5.29603 3.1064 6.2678 2.97838C6.47269 2.95623 6.67936 2.99962 6.85806 3.10235C7.03708 3.20526 7.17876 3.36238 7.26267 3.55102L8.81083 7.16339C8.8727 7.30784 8.8975 7.46545 8.883 7.62191C8.86849 7.77838 8.81513 7.92874 8.72777 8.05935L8.72775 8.05934L8.7261 8.06187L7.44691 10.0192L7.35898 10.1537L7.43003 10.2979C8.03696 11.5297 9.03702 12.524 10.2722 13.1239L10.4172 13.1944L10.5514 13.1051L12.4856 11.8182L12.487 11.8172C12.6168 11.7298 12.7666 11.6769 12.9225 11.6634C13.0784 11.65 13.2351 11.6766 13.3779 11.7405Z" stroke="#685945" stroke-width="0.563636"/>
</g>
</svg>
