<svg width="40" height="40" viewBox="0 0 40 40" fill="none" xmlns="http://www.w3.org/2000/svg">
<g id="Fether Icons /pocket">
<path id="Vector (Stroke)" fill-rule="evenodd" clip-rule="evenodd" d="M6.66667 6.66671C6.22464 6.66671 5.80072 6.8423 5.48816 7.15486C5.1756 7.46742 5.00001 7.89135 5.00001 8.33337V18.3334C5.00001 22.3116 6.58036 26.1269 9.3934 28.94C10.7863 30.3329 12.4399 31.4377 14.2598 32.1916C16.0796 32.9454 18.0302 33.3334 20 33.3334C23.9783 33.3334 27.7936 31.753 30.6066 28.94C33.4197 26.1269 35 22.3116 35 18.3334V8.33337C35 7.89135 34.8244 7.46742 34.5118 7.15486C34.1993 6.8423 33.7754 6.66671 33.3333 6.66671H6.66667ZM6.66667 3.33337H33.3333C34.6594 3.33337 35.9312 3.86016 36.8689 4.79784C37.8066 5.73552 38.3333 7.00729 38.3333 8.33337V18.3334C38.3333 23.1957 36.4018 27.8588 32.9636 31.297C29.5255 34.7352 24.8623 36.6667 20 36.6667C17.5924 36.6667 15.2084 36.1925 12.9841 35.2712C10.7598 34.3498 8.73879 32.9994 7.03638 31.297C3.59821 27.8588 1.66667 23.1957 1.66667 18.3334V8.33337C1.66667 7.00729 2.19346 5.73552 3.13114 4.79784C4.06882 3.86016 5.34059 3.33337 6.66667 3.33337Z" fill="#75634D"/>
<path id="Vector (Stroke)_2" fill-rule="evenodd" clip-rule="evenodd" d="M12.1548 15.4882C12.8057 14.8373 13.861 14.8373 14.5118 15.4882L20 20.9763L25.4882 15.4882C26.139 14.8373 27.1943 14.8373 27.8452 15.4882C28.4961 16.139 28.4961 17.1943 27.8452 17.8452L21.1785 24.5118C20.5276 25.1627 19.4724 25.1627 18.8215 24.5118L12.1548 17.8452C11.504 17.1943 11.504 16.139 12.1548 15.4882Z" fill="#75634D"/>
</g>
</svg>
