<svg width="51" height="50" viewBox="0 0 51 50" fill="none" xmlns="http://www.w3.org/2000/svg">
<g id="restaurant 1" clip-path="url(#clip0_1_171)">
<g id="Group">
<path id="Vector" d="M41.3776 20.3946C41.9628 20.3946 42.4372 19.9203 42.4372 19.3351V15.9362C42.4372 15.351 41.9628 14.8766 41.3776 14.8766L39.8696 14.8858L34.9211 20.3946H41.3776Z" fill="#75634D"/>
<path id="Vector_2" d="M9.61763 20.3943H16.1249L11.0907 14.8765H9.61763C9.03243 14.8765 8.55807 15.3508 8.55807 15.936V19.3346C8.55807 19.9199 9.03243 20.3943 9.61763 20.3943Z" fill="#75634D"/>
<path id="Vector_3" d="M26.1055 25.8583L35.9247 14.8766H15.0713L25.0518 25.8625C25.3347 26.174 25.825 26.172 26.1055 25.8583Z" fill="#75634D"/>
<path id="Vector_4" d="M28.8698 41.3125H27.0456V28.982C26.6081 29.2346 26.1081 29.3726 25.5923 29.3747C25.5884 29.3747 25.5846 29.3747 25.5807 29.3747C25.0611 29.3747 24.5568 29.2365 24.1157 28.9819V41.3125H22.1257C21.3166 41.3125 20.6607 41.9684 20.6607 42.7774C20.6607 43.5864 21.3166 44.2423 22.1257 44.2423H28.8699C29.6789 44.2423 30.3348 43.5864 30.3348 42.7774C30.3348 41.9684 29.6788 41.3125 28.8698 41.3125Z" fill="#75634D"/>
<path id="Vector_5" d="M12.8535 24.4702H3.4299V7.10527C3.4299 6.29623 2.77399 5.64032 1.96495 5.64032C1.15591 5.64032 0.5 6.29623 0.5 7.10527V42.8947C0.5 43.7037 1.15591 44.3596 1.96495 44.3596C2.77399 44.3596 3.4299 43.7037 3.4299 42.8947V31.9523H14.0814V42.8947C14.0814 43.7037 14.7373 44.3596 15.5463 44.3596C16.3553 44.3596 17.0113 43.7037 17.0113 42.8947V28.6279C17.0113 26.3353 15.1461 24.4702 12.8535 24.4702Z" fill="#75634D"/>
<path id="Vector_6" d="M49.0346 5.64032C48.2255 5.64032 47.5696 6.29623 47.5696 7.10527V24.4702H38.3643C36.0717 24.4702 34.2066 26.3354 34.2066 28.6279V42.8947C34.2066 43.7037 34.8625 44.3596 35.6715 44.3596C36.4806 44.3596 37.1365 43.7037 37.1365 42.8947V31.9499H47.5697V42.8947C47.5697 43.7037 48.2256 44.3596 49.0347 44.3596C49.8437 44.3596 50.4996 43.7037 50.4996 42.8947V7.10527C50.4995 6.29623 49.8437 5.64032 49.0346 5.64032Z" fill="#75634D"/>
</g>
</g>
<defs>
<clipPath id="clip0_1_171">
<rect width="50" height="50" fill="white" transform="translate(0.5)"/>
</clipPath>
</defs>
</svg>
