<svg width="15" height="15" viewBox="0 0 15 15" fill="none" xmlns="http://www.w3.org/2000/svg">
<g id="right-arrow (1) 1">
<g id="Group">
<g id="Group_2">
<path id="Vector" d="M11.6672 6.9147L4.99197 0.239632C4.83758 0.0851213 4.63148 0 4.41173 0C4.19197 0 3.98588 0.0851213 3.83149 0.239632L3.33991 0.731092C3.02003 1.05133 3.02003 1.57182 3.33991 1.89157L8.94523 7.49689L3.33369 13.1084C3.1793 13.2629 3.09406 13.4689 3.09406 13.6885C3.09406 13.9084 3.1793 14.1144 3.33369 14.269L3.82527 14.7604C3.97978 14.9149 4.18575 15 4.40551 15C4.62526 15 4.83136 14.9149 4.98575 14.7604L11.6672 8.0792C11.8219 7.9242 11.9069 7.71725 11.9064 7.49726C11.9069 7.2764 11.8219 7.06958 11.6672 6.9147Z" fill="#75634D"/>
</g>
</g>
</g>
</svg>
