<svg width="35" height="35" viewBox="0 0 35 35" fill="none" xmlns="http://www.w3.org/2000/svg">
<g id="Fether Icons /search" clip-path="url(#clip0_1_260)">
<path id="Vector (Stroke)" fill-rule="evenodd" clip-rule="evenodd" d="M15.0417 9.83317C9.40384 9.83317 4.83341 14.4036 4.83341 20.0415C4.83341 25.6794 9.40384 30.2498 15.0417 30.2498C20.6797 30.2498 25.2501 25.6794 25.2501 20.0415C25.2501 14.4036 20.6797 9.83317 15.0417 9.83317ZM1.91675 20.0415C1.91675 12.7928 7.79301 6.9165 15.0417 6.9165C22.2905 6.9165 28.1667 12.7928 28.1667 20.0415C28.1667 27.2902 22.2905 33.1665 15.0417 33.1665C7.79301 33.1665 1.91675 27.2902 1.91675 20.0415Z" fill="#75634D"/>
<path id="Vector (Stroke)_2" fill-rule="evenodd" clip-rule="evenodd" d="M22.2501 27.2499C22.8196 26.6804 23.743 26.6804 24.3125 27.2499L30.6563 33.5936C31.2258 34.1632 31.2258 35.0865 30.6563 35.656C30.0868 36.2255 29.1634 36.2255 28.5939 35.656L22.2501 29.3123C21.6806 28.7428 21.6806 27.8194 22.2501 27.2499Z" fill="#75634D"/>
</g>
<defs>
<clipPath id="clip0_1_260">
<rect width="35" height="35" fill="white"/>
</clipPath>
</defs>
</svg>
