<svg width="21" height="21" viewBox="0 0 21 21" fill="none" xmlns="http://www.w3.org/2000/svg">
<g id="Fether Icons /shopping-cart" clip-path="url(#clip0_1_48)">
<path id="Vector (Stroke)" fill-rule="evenodd" clip-rule="evenodd" d="M6.07645 18.163C6.07645 17.2425 6.82264 16.4963 7.74311 16.4963C8.66359 16.4963 9.40978 17.2425 9.40978 18.163C9.40978 19.0835 8.66359 19.8297 7.74311 19.8297C6.82264 19.8297 6.07645 19.0835 6.07645 18.163Z" fill="#685945"/>
<path id="Vector (Stroke)_2" fill-rule="evenodd" clip-rule="evenodd" d="M15.2431 18.163C15.2431 17.2425 15.9893 16.4963 16.9098 16.4963C17.8302 16.4963 18.5764 17.2425 18.5764 18.163C18.5764 19.0835 17.8302 19.8297 16.9098 19.8297C15.9893 19.8297 15.2431 19.0835 15.2431 18.163Z" fill="#685945"/>
<path id="Vector (Stroke)_3" fill-rule="evenodd" clip-rule="evenodd" d="M0.243103 1.49633C0.243103 1.03609 0.616199 0.662994 1.07644 0.662994H4.40977C4.80696 0.662994 5.14895 0.943315 5.2269 1.33278L5.9268 4.82966H19.4098C19.6581 4.82966 19.8935 4.94043 20.0518 5.13179C20.2102 5.32315 20.2749 5.57514 20.2284 5.8191L18.8938 12.817C18.7795 13.3925 18.4664 13.9095 18.0094 14.2774C17.5546 14.6435 16.9861 14.8388 16.4026 14.8297H8.31697C7.73342 14.8388 7.16494 14.6435 6.71017 14.2774C6.25331 13.9096 5.9403 13.3929 5.82588 12.8177C5.82583 12.8175 5.82592 12.818 5.82588 12.8177L4.43376 5.86233C4.42811 5.83932 4.42342 5.81594 4.41973 5.79222L3.7267 2.32966H1.07644C0.616199 2.32966 0.243103 1.95657 0.243103 1.49633ZM6.26038 6.49633L7.46047 12.4923C7.49857 12.6841 7.60293 12.8565 7.75528 12.9791C7.90763 13.1017 8.09826 13.1669 8.2938 13.1631L8.30977 13.163H16.4098L16.4257 13.1631C16.6213 13.1669 16.8119 13.1017 16.9643 12.9791C17.1159 12.857 17.22 12.6857 17.2585 12.495L18.4025 6.49633H6.26038Z" fill="#685945"/>
</g>
<defs>
<clipPath id="clip0_1_48">
<rect width="20" height="20" fill="white" transform="translate(0.243103 0.662994)"/>
</clipPath>
</defs>
</svg>
