<svg width="51" height="50" viewBox="0 0 51 50" fill="none" xmlns="http://www.w3.org/2000/svg">
<g id="sofa 1" clip-path="url(#clip0_1_146)">
<g id="Group">
<path id="Vector" d="M9.77734 23.5352H22.5703C23.695 23.5352 24.7219 23.9604 25.5 24.6577C26.2781 23.9603 27.305 23.5352 28.4297 23.5352H41.2227V7.82568C41.2227 7.02051 40.5784 6.35049 39.7732 6.34766C39.7611 6.34766 40.273 6.34766 11.2422 6.34766C10.4086 6.34766 9.77734 7.03105 9.77734 7.82568V23.5352Z" fill="#75634D"/>
<path id="Vector_2" d="M26.9648 27.9297V31.3477H41.2227C41.2227 29.1839 41.2227 28.7396 41.2227 26.4648H28.4297C27.622 26.4648 26.9648 27.122 26.9648 27.9297Z" fill="#75634D"/>
<path id="Vector_3" d="M45.7649 16.5061C44.862 16.5343 44.1523 17.2917 44.1523 18.195C44.1523 18.4268 44.1523 33.6445 44.1523 32.8125C44.1523 33.6215 43.4965 34.2773 42.6875 34.2773C41.5164 34.2773 7.20049 34.2773 8.3125 34.2773C7.50352 34.2773 6.84766 33.6215 6.84766 32.8125C6.84766 32.2721 6.84766 18.0541 6.84766 18.195C6.84766 17.2917 6.13799 16.5343 5.23506 16.5061C2.63252 16.4251 0.5 18.5071 0.5 21.0937V36.1328C0.5 38.5599 2.46748 40.5273 4.89453 40.5273H6.84766V42.1461C6.84766 42.9349 7.45381 43.6136 8.2417 43.6507C9.08291 43.6903 9.77734 43.02 9.77734 42.1875V40.5273H41.2227V42.1461C41.2227 42.9349 41.8288 43.6136 42.6167 43.6507C43.4579 43.6903 44.1523 43.02 44.1523 42.1875V40.5273H46.1055C48.5325 40.5273 50.5 38.5599 50.5 36.1328V21.1763C50.5 18.4721 48.3508 16.4256 45.7649 16.5061Z" fill="#75634D"/>
<path id="Vector_4" d="M24.0352 27.9297C24.0352 27.122 23.378 26.4648 22.5703 26.4648H9.77734V31.3477H24.0352V27.9297Z" fill="#75634D"/>
</g>
</g>
<defs>
<clipPath id="clip0_1_146">
<rect width="50" height="50" fill="white" transform="translate(0.5)"/>
</clipPath>
</defs>
</svg>
