<svg width="40" height="40" viewBox="0 0 40 40" fill="none" xmlns="http://www.w3.org/2000/svg">
<g id="Fether Icons /truck">
<path id="Vector (Stroke)" fill-rule="evenodd" clip-rule="evenodd" d="M0 5.00004C0 4.07957 0.746192 3.33337 1.66667 3.33337H26.6667C27.5871 3.33337 28.3333 4.07957 28.3333 5.00004V26.6667C28.3333 27.5872 27.5871 28.3334 26.6667 28.3334H1.66667C0.746192 28.3334 0 27.5872 0 26.6667V5.00004ZM3.33333 6.66671V25H25V6.66671H3.33333Z" fill="#75634D"/>
<path id="Vector (Stroke)_2" fill-rule="evenodd" clip-rule="evenodd" d="M25 13.3333C25 12.4128 25.7462 11.6666 26.6667 11.6666H33.3333C33.7754 11.6666 34.1993 11.8422 34.5118 12.1548L39.5118 17.1548C39.8244 17.4673 40 17.8913 40 18.3333V26.6666C40 27.5871 39.2538 28.3333 38.3333 28.3333H26.6667C25.7462 28.3333 25 27.5871 25 26.6666V13.3333ZM28.3333 15V25H36.6667V19.0236L32.643 15H28.3333Z" fill="#75634D"/>
<path id="Vector (Stroke)_3" fill-rule="evenodd" clip-rule="evenodd" d="M9.16666 28.3333C7.78595 28.3333 6.66666 29.4526 6.66666 30.8333C6.66666 32.214 7.78595 33.3333 9.16666 33.3333C10.5474 33.3333 11.6667 32.214 11.6667 30.8333C11.6667 29.4526 10.5474 28.3333 9.16666 28.3333ZM3.33333 30.8333C3.33333 27.6117 5.945 25 9.16666 25C12.3883 25 15 27.6117 15 30.8333C15 34.055 12.3883 36.6667 9.16666 36.6667C5.945 36.6667 3.33333 34.055 3.33333 30.8333Z" fill="#75634D"/>
<path id="Vector (Stroke)_4" fill-rule="evenodd" clip-rule="evenodd" d="M30.8333 28.3333C29.4526 28.3333 28.3333 29.4526 28.3333 30.8333C28.3333 32.214 29.4526 33.3333 30.8333 33.3333C32.214 33.3333 33.3333 32.214 33.3333 30.8333C33.3333 29.4526 32.214 28.3333 30.8333 28.3333ZM25 30.8333C25 27.6117 27.6117 25 30.8333 25C34.055 25 36.6667 27.6117 36.6667 30.8333C36.6667 34.055 34.055 36.6667 30.8333 36.6667C27.6117 36.6667 25 34.055 25 30.8333Z" fill="#75634D"/>
</g>
</svg>
