<svg width="20" height="20" viewBox="0 0 20 20" fill="none" xmlns="http://www.w3.org/2000/svg">
<g id="twitter 2" clip-path="url(#clip0_1_306)">
<g id="Group">
<path id="Vector" d="M10.0009 19.9998C15.5237 19.9998 20.0008 15.5227 20.0008 9.99991C20.0008 4.47711 15.5237 0 10.0009 0C4.47809 0 0.000976562 4.47711 0.000976562 9.99991C0.000976562 15.5227 4.47809 19.9998 10.0009 19.9998Z" fill="white"/>
<g id="Group_2">
<path id="Vector_2" d="M16.1254 7.18656C15.6968 7.37658 15.2359 7.50511 14.7524 7.56251C15.246 7.26678 15.6248 6.79885 15.8036 6.24037C15.3417 6.51435 14.83 6.71311 14.2857 6.82024C13.8497 6.35588 13.2285 6.06567 12.5406 6.06567C11.2208 6.06567 10.1503 7.13611 10.1503 8.45593C10.1503 8.64328 10.1716 8.82564 10.2126 9.00069C8.22605 8.90104 6.46469 7.9495 5.28569 6.50294C5.07998 6.85589 4.96197 7.26678 4.96197 7.70475C4.96197 8.53383 5.38426 9.26576 6.02528 9.69429C5.63365 9.68199 5.26483 9.5745 4.94272 9.395C4.94254 9.40516 4.94254 9.41532 4.94254 9.4253C4.94254 10.5834 5.76681 11.5494 6.86006 11.7689C6.6597 11.8238 6.44811 11.8528 6.23045 11.8528C6.07608 11.8528 5.92652 11.838 5.78071 11.8102C6.08482 12.7596 6.96737 13.4507 8.01357 13.4701C7.19536 14.1113 6.16486 14.4933 5.04468 14.4933C4.85216 14.4933 4.66143 14.4821 4.47479 14.4598C5.53204 15.1383 6.78876 15.5338 8.13853 15.5338C12.5351 15.5338 14.9394 11.8917 14.9394 8.73277C14.9394 8.6292 14.9371 8.52599 14.9325 8.42367C15.3999 8.08676 15.805 7.6659 16.1254 7.18656Z" fill="#75634D"/>
</g>
</g>
</g>
<defs>
<clipPath id="clip0_1_306">
<rect width="20" height="20" fill="white"/>
</clipPath>
</defs>
</svg>
