<svg width="51" height="50" viewBox="0 0 51 50" fill="none" xmlns="http://www.w3.org/2000/svg">
<path id="Vector" fill-rule="evenodd" clip-rule="evenodd" d="M42.0152 28.616H24.712V31.9454H42.0152V28.616ZM29.1787 19.0155C28.8846 18.769 28.7073 18.4467 28.6778 18.1052L28.5526 15.9811H38.7174C39.3436 15.9811 39.9802 15.7957 39.9802 15.2562V0.986188C39.9595 0.724328 39.8187 0.478104 39.5851 0.29571C39.3516 0.113316 39.0422 0.00786611 38.7174 0H12.3138C11.9883 0.00594614 11.6775 0.110767 11.4435 0.293549C11.2094 0.476331 11.0693 0.723655 11.051 0.986188V15.2562C11.051 15.7957 11.6772 15.9811 12.3138 15.9811H22.4682L22.3743 18.1052C22.3195 18.4321 22.1192 18.7318 21.8107 18.9481L21.7377 19.0071H19.7861C19.4161 19.0159 19.0653 19.142 18.8094 19.3581C18.5536 19.5742 18.4133 19.8629 18.419 20.1618V21.3419H32.6644V20.1956C32.6714 20.0474 32.6416 19.8995 32.5768 19.7607C32.512 19.6219 32.4135 19.495 32.2871 19.3875C32.1607 19.2799 32.009 19.1938 31.8408 19.1342C31.6726 19.0747 31.4913 19.0429 31.3077 19.0408L29.1787 19.0155ZM38.0808 13.3513H12.9191V1.6352H38.0599L38.0808 13.3513ZM2.22192 27.2421C1.93346 27.1198 1.66667 26.9667 1.42876 26.7869C0.842694 26.3187 0.508986 25.6826 0.499985 25.0168C0.505149 24.691 0.589852 24.3692 0.749234 24.0698C0.908615 23.7704 1.13949 23.4993 1.42876 23.2721C2.00584 22.8141 2.78005 22.5543 3.58907 22.5472H47.4212C48.2351 22.5594 49.0136 22.8181 49.6024 23.2721C49.8893 23.4994 50.1166 23.771 50.2708 24.0708C50.425 24.3705 50.5029 24.6923 50.4999 25.0168C50.4911 25.6703 50.1695 26.2955 49.6024 26.7616C49.0142 27.2163 48.2353 27.4752 47.4212 27.4865H46.9203V49.823H43.038V27.4865H23.7101V36.0924H6.44858V50H2.22192V27.2421ZM6.44858 28.9279V30.5378H21.7586V28.9279H6.44858ZM6.44858 32.1983V33.8419H21.7586V32.1983H6.44858Z" fill="#75634D"/>
</svg>
