<svg width="51" height="50" viewBox="0 0 51 50" fill="none" xmlns="http://www.w3.org/2000/svg">
<path id="Vector" fill-rule="evenodd" clip-rule="evenodd" d="M40.3926 4.89085H39.3208C39.9716 3.97862 40.9262 3.38063 41.9789 3.22564C42.3478 3.26978 42.6861 3.46844 42.9223 3.77938C43.1585 4.09033 43.2738 4.48904 43.2436 4.89085V18.5852H46.0732V4.92582C46.1064 4.30924 46.0264 3.69162 45.8379 3.10894C45.6494 2.52626 45.3561 1.99011 44.9751 1.53173C44.5941 1.07334 44.133 0.701845 43.6186 0.438885C43.1042 0.175925 42.5469 0.026738 41.9789 0C40.8783 0.0749365 39.8122 0.446283 38.8766 1.08055C37.9411 1.71481 37.1656 2.59204 36.6199 3.63318L35.9018 5.04224H34.5406C34.1953 6.69496 34.0797 8.39456 34.1977 10.0845L40.6285 10.0146C40.6285 8.85012 40.7678 5.67109 40.3605 4.85595L40.3926 4.89085ZM38.4206 14.9753C38.517 14.9753 38.592 15.0801 38.6563 15.2315C38.6742 15.3666 38.6742 15.5038 38.6563 15.639C38.6755 15.7858 38.6755 15.9348 38.6563 16.0815C38.592 16.2329 38.517 16.3028 38.4206 16.3028C38.3241 16.3028 38.2812 16.2329 38.2062 16.0815C38.187 15.9348 38.187 15.7858 38.2062 15.639C38.1883 15.5038 38.1883 15.3666 38.2062 15.2315C38.2812 15.0801 38.3455 14.9753 38.4206 14.9753ZM35.5481 14.9753C35.6553 14.9753 35.7196 15.0801 35.7518 15.2315C35.8013 15.3606 35.8268 15.4991 35.8268 15.639C35.8285 15.7904 35.803 15.9407 35.7518 16.0815C35.7518 16.2329 35.6553 16.3028 35.5481 16.3028C35.4971 16.2937 35.45 16.2676 35.4134 16.2279C35.3769 16.1882 35.3528 16.1369 35.3445 16.0815C35.3253 15.9348 35.3253 15.7858 35.3445 15.639C35.3266 15.5038 35.3266 15.3666 35.3445 15.2315C35.3445 15.0801 35.4838 14.9753 35.5481 14.9753ZM36.9843 14.9753C37.0915 14.9753 37.1558 15.0801 37.188 15.2315C37.2285 15.3629 37.2502 15.5004 37.2523 15.639C37.2527 15.7893 37.231 15.9387 37.188 16.0815C37.188 16.2329 37.0915 16.3028 36.9843 16.3028C36.8771 16.3028 36.845 16.2329 36.7807 16.0815C36.7615 15.9348 36.7615 15.7858 36.7807 15.639C36.7628 15.5038 36.7628 15.3666 36.7807 15.2315C36.845 15.0801 36.9093 14.9753 36.9843 14.9753ZM38.4206 13.1587C38.517 13.1587 38.592 13.2635 38.6563 13.4149C38.6736 13.5501 38.6736 13.6872 38.6563 13.8224C38.6755 13.9692 38.6755 14.1182 38.6563 14.2649C38.592 14.4163 38.517 14.4862 38.4206 14.4862C38.3241 14.4862 38.2812 14.4163 38.2062 14.2649C38.187 14.1182 38.187 13.9692 38.2062 13.8224C38.1889 13.6872 38.1889 13.5501 38.2062 13.4149C38.2812 13.2635 38.3455 13.1587 38.4206 13.1587ZM35.5481 13.1587C35.6553 13.1587 35.7196 13.2635 35.7518 13.4149C35.8504 13.6881 35.8504 13.9917 35.7518 14.2649C35.7518 14.4163 35.6553 14.4862 35.5481 14.4862C35.4971 14.4772 35.45 14.451 35.4134 14.4113C35.3769 14.3716 35.3528 14.3203 35.3445 14.2649C35.3253 14.1182 35.3253 13.9692 35.3445 13.8224C35.3272 13.6872 35.3272 13.5501 35.3445 13.4149C35.3445 13.2635 35.4838 13.1587 35.5481 13.1587ZM36.9843 13.1587C37.0915 13.1587 37.1558 13.2635 37.188 13.4149C37.2737 13.6906 37.2737 13.9892 37.188 14.2649C37.188 14.4163 37.0915 14.4862 36.9843 14.4862C36.8771 14.4862 36.845 14.4163 36.7807 14.2649C36.7615 14.1182 36.7615 13.9692 36.7807 13.8224C36.7634 13.6872 36.7634 13.5501 36.7807 13.4149C36.845 13.2635 36.9093 13.1587 36.9843 13.1587ZM38.4206 11.377C38.517 11.377 38.592 11.4585 38.6563 11.5983C38.675 11.7451 38.675 11.894 38.6563 12.0408C38.6742 12.176 38.6742 12.3132 38.6563 12.4483C38.592 12.5997 38.517 12.7162 38.4206 12.7162C38.3241 12.7162 38.2812 12.5997 38.2062 12.4483C38.1883 12.3132 38.1883 12.176 38.2062 12.0408C38.1875 11.894 38.1875 11.7451 38.2062 11.5983C38.2812 11.4585 38.3455 11.377 38.4206 11.377ZM35.5481 11.377C35.6553 11.377 35.7196 11.4585 35.7518 11.5983C35.803 11.7391 35.8285 11.8894 35.8268 12.0408C35.8268 12.1807 35.8013 12.3192 35.7518 12.4483C35.7518 12.5997 35.6553 12.7162 35.5481 12.7162C35.441 12.7162 35.3767 12.5997 35.3445 12.4483C35.3266 12.3132 35.3266 12.176 35.3445 12.0408C35.3259 11.894 35.3259 11.7451 35.3445 11.5983C35.3543 11.5435 35.3789 11.4932 35.4151 11.4538C35.4514 11.4144 35.4978 11.3876 35.5481 11.377ZM36.9843 11.377C37.0915 11.377 37.1558 11.4585 37.188 11.5983C37.2301 11.7413 37.2518 11.8906 37.2523 12.0408C37.2502 12.1794 37.2285 12.3169 37.188 12.4483C37.188 12.5997 37.0915 12.7162 36.9843 12.7162C36.8771 12.7162 36.845 12.5997 36.7807 12.4483C36.7628 12.3132 36.7628 12.176 36.7807 12.0408C36.762 11.894 36.762 11.7451 36.7807 11.5983C36.845 11.4585 36.9093 11.377 36.9843 11.377ZM14.1658 44.6929L12.4616 49.6187C12.2901 50.0612 11.4756 50.1427 10.6181 49.7351C9.72852 49.3276 9.18188 48.5706 9.32122 48.1747L10.6824 44.2854C8.08867 43.575 5.97723 41.6536 4.78753 36.5765C4.20876 33.2461 0.500343 26.2708 0.500343 25.7934V23.9069C0.491428 23.4225 0.656543 22.9533 0.960685 22.599C1.26483 22.2446 1.68409 22.0329 2.1295 22.0088H48.8599C49.3072 22.03 49.7291 22.2404 50.0355 22.5951C50.3419 22.9497 50.5085 23.4205 50.4997 23.9069V25.7934C50.4997 27.2024 46.7484 34.69 46.2125 37.0539C45.8975 38.4651 45.3092 39.7871 44.4868 40.9316C43.6643 42.0762 42.6267 43.0171 41.443 43.6915L43.0078 48.1747C43.1793 48.6172 42.6005 49.3392 41.7431 49.7351C40.8642 50.1427 40.039 50.0612 39.8782 49.6187L38.1633 44.658C37.8813 44.6748 37.5986 44.6748 37.3166 44.658H14.1658V44.6929Z" fill="#75634D"/>
</svg>
