<svg width="20" height="20" viewBox="0 0 20 20" fill="none" xmlns="http://www.w3.org/2000/svg">
<g id="youtube 1" clip-path="url(#clip0_1_317)">
<path id="Vector" d="M10 20C15.5229 20 20 15.5229 20 10C20 4.47716 15.5229 0 10 0C4.47716 0 0 4.47716 0 10C0 15.5229 4.47716 20 10 20Z" fill="white"/>
<path id="Vector_2" d="M17.0707 2.92798C20.9759 6.83357 20.9763 13.1655 17.0707 17.071C13.1654 20.9763 6.8332 20.9765 2.92761 17.071L17.0707 2.92798Z" fill="white"/>
<path id="Vector_3" d="M19.7994 12.0025L14.8501 7.05334L9.01285 7.71796L5.48199 13.1842L12.0797 19.7817C15.9587 18.9612 19.0083 15.8928 19.7994 12.0025Z" fill="white"/>
<path id="Vector_4" d="M15.2334 8.07002C15.2334 7.23171 14.5543 6.55225 13.7165 6.55225H6.59932C5.76164 6.55225 5.08264 7.23188 5.08264 8.07002V12.14C5.08264 12.9783 5.76177 13.6578 6.59932 13.6578H13.7163C14.5544 13.6578 15.2333 12.9781 15.2333 12.14V8.07002H15.2334ZM9.14264 11.822V7.99929L12.0416 9.91071L9.14264 11.822Z" fill="#725E3A"/>
</g>
<defs>
<clipPath id="clip0_1_317">
<rect width="20" height="20" fill="white"/>
</clipPath>
</defs>
</svg>
